<svg width="36" height="40" viewBox="0 0 36 40" fill="none" xmlns="http://www.w3.org/2000/svg">
<g id="Stroke" filter="url(#filter0_d_4_25)">
<path d="M27.2441 0.25H27.3047C27.4714 0.25 27.6216 0.28524 27.7412 0.320312L27.7422 0.319336C27.8685 0.350911 28.031 0.397352 28.1816 0.472656L27.9531 0.927734L28.8369 0.597656C29.0783 1.02005 29.384 1.36493 29.7559 1.64258C30.0814 1.86452 30.4358 2.06992 30.8203 2.25781L31.2188 2.44238L31.75 2.67285L31.8145 3.24902C31.8376 3.45744 31.8558 3.72284 31.8164 3.97656C31.8091 4.12737 31.7874 4.27607 31.751 4.42188L31.7422 4.45508H31.7432C31.7427 4.46402 31.7422 4.47628 31.7422 4.49219C31.7422 4.46868 31.7399 4.47476 31.748 4.52344C31.7555 4.56796 31.7684 4.63221 31.79 4.71875L31.8906 5.11719L31.6807 5.4707C31.2124 6.26092 30.6471 6.91477 29.9736 7.40039L29.9746 7.40137C29.3735 7.85215 28.7223 8.20124 28.0234 8.44434C27.3644 8.67353 26.6688 8.84242 25.9385 8.95508L25.9395 8.95605C25.2971 9.05883 24.6274 9.17486 23.9316 9.30371L23.917 9.30664L23.9023 9.30859C23.2729 9.40543 22.6267 9.55165 21.9639 9.74805C21.352 9.92935 20.7421 10.2038 20.1338 10.5781L19.7168 10.835L19.2578 10.6631C19.2046 10.6432 19.1754 10.6392 19.165 10.6387L19.0947 10.6484H19.0234C18.9774 10.6484 18.9013 10.6567 18.79 10.6885C18.5845 10.7472 18.3562 10.8041 18.1074 10.8594L18.1064 10.8574C17.8705 10.9132 17.628 10.9259 17.3867 10.9141C17.2135 11.0197 17.0296 11.1055 16.8369 11.1729C17.4808 11.1972 18.1683 11.1895 18.9004 11.1455L19.375 11.1123C20.7144 10.9813 22.0288 10.8896 23.3184 10.8369L24.1729 10.8018L24.3398 11.6396C24.3558 11.7192 24.3756 11.8529 24.3691 12.0117C24.467 12.1047 24.5621 12.202 24.6533 12.3047L24.9658 12.6562C25.0577 12.7596 25.1411 12.8536 25.2305 12.9541C25.4045 13.1066 25.5748 13.2381 25.7402 13.3516C25.7788 13.3685 25.8465 13.3893 25.9717 13.3789L26.6465 13.3223L26.9492 13.9277C27.1218 14.2729 27.2425 14.6369 27.3115 15.0166C27.4034 15.5221 27.3258 16.0176 27.1338 16.4785L27.0146 16.7637L26.7559 16.9326C26.2513 17.2606 25.7591 17.6003 25.2803 17.9531L25.2666 17.9639L25.252 17.9736C24.7239 18.3349 24.1694 18.6676 23.5889 18.9717L23.5879 18.9707C23.0024 19.2909 22.3679 19.5503 21.6865 19.749C20.9582 19.9615 20.1851 20.0481 19.375 20.0225V20.0234H19.0234C18.8663 20.0234 18.7284 19.9904 18.6152 19.9512C18.2845 20.0262 17.9381 20.0415 17.5977 20.0215L17.5645 20.0195L17.5322 20.0156C17.2397 19.9791 17.0866 20.0186 17.0156 20.0508L16.6465 20.2188L16.2656 20.082C16.0343 19.9994 15.723 19.9453 15.3125 19.9453C15.0363 19.9453 14.7665 19.926 14.5049 19.8857C14.1944 20.3642 13.8966 20.8631 13.6104 21.3818L13.6064 21.3877L13.6025 21.3945C13.4176 21.7181 13.2439 22.0539 13.0801 22.4014C13.5333 22.4378 13.9256 22.4508 14.2598 22.4385C14.9371 22.4134 15.572 22.3632 16.165 22.2891C16.7917 22.2107 17.4314 22.132 18.084 22.0537H18.0889C18.7691 21.9752 19.5608 21.9479 20.457 21.9648C21.1562 21.6594 21.9235 21.4582 22.751 21.3535C23.5603 21.2304 24.2987 21.0598 24.9678 20.8447L25.2637 20.75L25.5605 20.8389C26.0195 20.9766 26.3976 21.2474 26.6904 21.6074L26.8457 21.791C26.9803 21.9555 27.1067 22.1269 27.2275 22.3037C27.342 22.4325 27.454 22.5433 27.5605 22.6406L28.0322 22.5557L28.4023 22.9258C28.6653 23.1887 28.8347 23.5136 28.9033 23.876C28.9182 23.9294 28.9321 23.9824 28.9453 24.0352L30.3789 23.8564L29.5713 25.5156C29.0379 26.6105 28.4049 27.5146 27.6504 28.1748L27.6494 28.1738C26.9622 28.7977 26.1747 29.287 25.293 29.6396L25.2852 29.6426L25.2764 29.6455C24.4468 29.9602 23.5206 30.1974 22.5039 30.3623L22.4922 30.3643L22.4814 30.3652C21.5592 30.4933 20.5169 30.6605 19.3545 30.8672L19.3535 30.8662C18.9757 30.9344 18.5797 30.9486 18.1953 30.8525L18.1172 30.834L18.0439 30.8018C18.0049 30.785 17.9601 30.7755 17.9062 30.7705C17.182 30.8972 16.333 31.0239 15.3613 31.1484L15.3604 31.1475C14.3196 31.2842 13.2665 31.3398 12.2012 31.3125C11.1162 31.2847 10.0667 31.1446 9.05469 30.8916C7.96843 30.62 7.02552 30.1265 6.26074 29.3936L6.24609 29.3789C5.93087 29.0637 5.69725 28.6903 5.54492 28.2715L5.53027 28.2324L5.52246 28.2031C5.51142 28.1907 5.4741 28.1551 5.38574 28.1074L4.93555 27.8652L4.86816 27.3584C4.82015 26.9984 4.74683 26.5811 4.64648 26.1045L4.64062 26.0762L4.63574 26.0469C4.56005 25.5422 4.4721 25.0373 4.37109 24.5322L4.36523 24.5049L4.36133 24.4775C4.32873 24.2494 4.2997 24.0229 4.27148 23.7988C4.37263 23.7187 4.47268 23.6379 4.57031 23.5547C4.78363 23.3651 4.98555 23.1618 5.17969 22.9482C5.22773 23.401 5.2841 23.8637 5.35156 24.3359C5.45573 24.8568 5.54688 25.3776 5.625 25.8984C5.72917 26.3932 5.80729 26.8359 5.85938 27.2266C6.19792 27.4089 6.40625 27.6432 6.48438 27.9297C6.58854 28.2161 6.74479 28.4635 6.95312 28.6719C7.57812 29.2708 8.35938 29.6875 9.29688 29.9219C10.2344 30.1562 11.2109 30.2865 12.2266 30.3125C13.2422 30.3385 14.2448 30.2865 15.2344 30.1562C16.25 30.026 17.1224 29.8958 17.8516 29.7656C18.0599 29.7656 18.2552 29.8047 18.4375 29.8828C18.6458 29.9349 18.8932 29.9349 19.1797 29.8828C20.3516 29.6745 21.4062 29.5052 22.3438 29.375C23.3073 29.2188 24.1667 28.9974 24.9219 28.7109C25.7031 28.3984 26.3932 27.9688 26.9922 27.4219C27.6172 26.875 28.1771 26.0938 28.6719 25.0781C28.4635 25.1042 28.3203 25.0781 28.2422 25C28.1641 24.8958 28.099 24.7656 28.0469 24.6094C28.0208 24.4531 27.9818 24.2839 27.9297 24.1016C27.9036 23.9193 27.8255 23.763 27.6953 23.6328C27.4089 23.6849 27.1745 23.6328 26.9922 23.4766C26.8099 23.3203 26.6276 23.138 26.4453 22.9297C26.2891 22.6953 26.1198 22.474 25.9375 22.2656C25.7552 22.0312 25.5339 21.875 25.2734 21.7969C24.5443 22.0312 23.75 22.2135 22.8906 22.3438C22.0573 22.4479 21.3151 22.6562 20.6641 22.9688C19.7005 22.9427 18.8802 22.9688 18.2031 23.0469C17.5521 23.125 16.9141 23.2031 16.2891 23.2812C15.6641 23.3594 15 23.4115 14.2969 23.4375C13.5938 23.4635 12.7083 23.3984 11.6406 23.2422C11.9531 22.4089 12.3177 21.6276 12.7344 20.8984C13.151 20.1432 13.5938 19.4271 14.0625 18.75C14.4271 18.8802 14.8438 18.9453 15.3125 18.9453C15.8073 18.9453 16.237 19.0104 16.6016 19.1406C16.888 19.0104 17.2396 18.9714 17.6562 19.0234C18.099 19.0495 18.4505 18.9974 18.7109 18.8672C18.8411 18.9714 18.9453 19.0234 19.0234 19.0234H19.375C20.1042 19.0495 20.7812 18.9714 21.4062 18.7891C22.0312 18.6068 22.6042 18.3724 23.125 18.0859C23.6719 17.7995 24.1927 17.487 24.6875 17.1484C25.1823 16.7839 25.6901 16.4323 26.2109 16.0938C26.3411 15.7812 26.3802 15.4818 26.3281 15.1953C26.276 14.9089 26.1849 14.6354 26.0547 14.375C25.7422 14.401 25.4688 14.349 25.2344 14.2188C25 14.0625 24.7656 13.8802 24.5312 13.6719L23.9062 12.9688C23.6979 12.7344 23.4766 12.5391 23.2422 12.3828C23.2422 12.2526 23.2682 12.1615 23.3203 12.1094C23.3724 12.0573 23.3854 11.9661 23.3594 11.8359C22.0833 11.888 20.7812 11.9792 19.4531 12.1094C18.125 12.2135 16.9141 12.2135 15.8203 12.1094C15.7422 11.901 15.7031 11.6536 15.7031 11.3672C15.7292 11.0807 15.6771 10.7943 15.5469 10.5078C15.8333 10.4297 16.1068 10.3516 16.3672 10.2734C16.6536 10.1953 16.901 10.0651 17.1094 9.88281C17.4219 9.9349 17.6823 9.9349 17.8906 9.88281C18.125 9.83073 18.3333 9.77865 18.5156 9.72656C18.6979 9.67448 18.8672 9.64844 19.0234 9.64844C19.2057 9.6224 19.401 9.64844 19.6094 9.72656C20.2865 9.3099 20.9766 8.9974 21.6797 8.78906C22.3828 8.58073 23.0729 8.42448 23.75 8.32031C24.4531 8.1901 25.1302 8.07292 25.7812 7.96875C26.4583 7.86458 27.0964 7.70833 27.6953 7.5C28.2943 7.29167 28.8542 6.99219 29.375 6.60156C29.9219 6.21094 30.4036 5.66406 30.8203 4.96094C30.7682 4.7526 30.7422 4.59635 30.7422 4.49219C30.7422 4.36198 30.7552 4.25781 30.7812 4.17969C30.8073 4.07552 30.8203 3.97135 30.8203 3.86719C30.8464 3.76302 30.8464 3.59375 30.8203 3.35938C30.2214 3.09896 29.6745 2.79948 29.1797 2.46094C28.6849 2.09635 28.2812 1.64062 27.9688 1.09375C27.9948 1.22396 27.9818 1.3151 27.9297 1.36719C27.8776 1.39323 27.8125 1.39323 27.7344 1.36719C27.6823 1.34115 27.6042 1.3151 27.5 1.28906C27.4219 1.26302 27.3568 1.25 27.3047 1.25V1.44531C27.3307 1.4974 27.3438 1.5625 27.3438 1.64062C27.1354 1.64062 26.9922 1.54948 26.9141 1.36719H26.6406C26.5885 1.36719 26.5495 1.32812 26.5234 1.25C25.1953 1.48438 24.0234 1.66667 23.0078 1.79688C21.9922 1.90104 21.0156 2.03125 20.0781 2.1875C19.1406 2.31771 18.1771 2.5 17.1875 2.73438C16.1979 2.94271 15.0781 3.24219 13.8281 3.63281C13.125 3.78906 12.4609 3.93229 11.8359 4.0625C11.2109 4.16667 10.625 4.32292 10.0781 4.53125C9.55729 4.71354 9.07552 4.96094 8.63281 5.27344C8.1901 5.5599 7.8125 5.9375 7.5 6.40625C7.65625 6.92708 7.76042 7.44792 7.8125 7.96875C7.86458 8.46354 7.94271 8.95833 8.04688 9.45312C8.15104 9.94792 8.29427 10.4427 8.47656 10.9375C8.6849 11.4062 9.01042 11.849 9.45312 12.2656C9.29688 12.7148 9.12598 13.1348 8.94043 13.5254L8.04688 15.3125C7.8125 15.7812 7.59115 16.263 7.38281 16.7578C7.17448 17.2526 6.97917 17.7865 6.79688 18.3594C6.58854 18.3073 6.45833 18.3594 6.40625 18.5156C6.38021 18.6458 6.28906 18.724 6.13281 18.75C6.17773 18.9297 6.17106 19.1084 6.11914 19.2881C5.71639 19.0877 5.36847 18.845 5.07812 18.5547L5.04492 18.5215L4.90039 17.9414L5.66406 17.8135C5.75842 17.6921 5.87859 17.5818 6.0293 17.498C6.16589 17.1051 6.30982 16.7291 6.46094 16.3701C6.67749 15.8558 6.90803 15.3539 7.15234 14.8652C7.1528 14.8643 7.15384 14.8632 7.1543 14.8623L7.15527 14.8594L7.15625 14.8574C7.1567 14.8565 7.15775 14.8554 7.1582 14.8545C7.15865 14.8536 7.15873 14.8525 7.15918 14.8516C7.15964 14.8506 7.16068 14.8495 7.16113 14.8486L7.16211 14.8457L7.16309 14.8438L7.16504 14.8408L7.16602 14.8379C7.16647 14.837 7.16751 14.8359 7.16797 14.835L7.16992 14.8291L7.17188 14.8271L7.17285 14.8242C7.17331 14.8233 7.17435 14.8222 7.1748 14.8213L7.17676 14.8154L7.17871 14.8135L7.17969 14.8105C7.18015 14.8096 7.18118 14.8085 7.18164 14.8076L7.18359 14.8018L7.18555 14.7998L7.18652 14.7969C7.18698 14.796 7.18802 14.7949 7.18848 14.7939L7.19043 14.7881C7.19088 14.7872 7.19193 14.7861 7.19238 14.7852L7.19336 14.7832C7.19382 14.7823 7.19485 14.7812 7.19531 14.7803C7.19577 14.7794 7.19583 14.7783 7.19629 14.7773C7.19675 14.7764 7.19778 14.7753 7.19824 14.7744L7.19922 14.7715L7.2002 14.7695C7.20064 14.7686 7.2017 14.7675 7.20215 14.7666C7.2026 14.7657 7.20268 14.7646 7.20312 14.7637C7.20358 14.7628 7.20462 14.7617 7.20508 14.7607L7.20605 14.7578L7.20703 14.7559L7.20898 14.7529L7.20996 14.75C7.21042 14.7491 7.21146 14.748 7.21191 14.7471L7.21387 14.7412L7.21582 14.7393L7.2168 14.7363C7.21725 14.7354 7.21829 14.7343 7.21875 14.7334L7.2207 14.7275L7.22266 14.7256L7.22363 14.7227C7.22409 14.7217 7.22513 14.7206 7.22559 14.7197L7.22754 14.7139L7.22949 14.7119L7.23047 14.709C7.23093 14.7081 7.23196 14.707 7.23242 14.7061L7.23438 14.7002C7.23482 14.6993 7.23588 14.6982 7.23633 14.6973L7.2373 14.6953C7.23776 14.6944 7.2388 14.6933 7.23926 14.6924C7.23971 14.6915 7.23978 14.6904 7.24023 14.6895C7.24069 14.6885 7.24173 14.6874 7.24219 14.6865L7.24316 14.6836L7.24414 14.6816C7.24459 14.6807 7.24564 14.6796 7.24609 14.6787C7.24654 14.6778 7.24662 14.6767 7.24707 14.6758C7.24753 14.6749 7.24857 14.6738 7.24902 14.6729L7.25 14.6699L7.25098 14.668L7.25293 14.665L7.25391 14.6621C7.25436 14.6612 7.2554 14.6601 7.25586 14.6592L7.25781 14.6533L7.25977 14.6514L7.26074 14.6484C7.2612 14.6475 7.26224 14.6464 7.2627 14.6455L7.26465 14.6396L7.2666 14.6377L7.26758 14.6348C7.26804 14.6339 7.26907 14.6328 7.26953 14.6318L7.27148 14.626L7.27344 14.624L7.27441 14.6211C7.27487 14.6202 7.27591 14.6191 7.27637 14.6182L7.27832 14.6123C7.27877 14.6114 7.27982 14.6103 7.28027 14.6094L7.28125 14.6074C7.28171 14.6065 7.28275 14.6054 7.2832 14.6045C7.28366 14.6036 7.28372 14.6025 7.28418 14.6016C7.28464 14.6006 7.28568 14.5995 7.28613 14.5986L7.28711 14.5957L7.28809 14.5938C7.28854 14.5929 7.28959 14.5917 7.29004 14.5908C7.29049 14.5899 7.29057 14.5888 7.29102 14.5879C7.29147 14.587 7.29251 14.5859 7.29297 14.585L7.29395 14.582L7.29492 14.5801L7.29688 14.5771L7.29785 14.5742C7.29831 14.5733 7.29935 14.5722 7.2998 14.5713L7.30176 14.5654L7.30371 14.5635L7.30469 14.5605C7.30515 14.5596 7.30618 14.5585 7.30664 14.5576L7.30859 14.5518L7.31055 14.5498L7.31152 14.5469C7.31198 14.546 7.31302 14.5449 7.31348 14.5439L7.31543 14.5381L7.31738 14.5361L7.31836 14.5332C7.31882 14.5323 7.31985 14.5312 7.32031 14.5303L7.32227 14.5244C7.32272 14.5235 7.32377 14.5224 7.32422 14.5215L7.3252 14.5195C7.32565 14.5186 7.32669 14.5175 7.32715 14.5166C7.3276 14.5157 7.32767 14.5146 7.32812 14.5137C7.32858 14.5128 7.32962 14.5117 7.33008 14.5107L7.33105 14.5078L7.33203 14.5059C7.33248 14.505 7.33353 14.5038 7.33398 14.5029C7.33443 14.502 7.33451 14.5009 7.33496 14.5C7.33542 14.4991 7.33646 14.498 7.33691 14.4971L7.33789 14.4941L7.33887 14.4922L7.34082 14.4893L7.3418 14.4863C7.34225 14.4854 7.34329 14.4843 7.34375 14.4834L7.3457 14.4775L7.34766 14.4756L7.34863 14.4727C7.34909 14.4717 7.35013 14.4706 7.35059 14.4697L7.35254 14.4639L7.35449 14.4619L7.35547 14.459C7.35593 14.4581 7.35696 14.457 7.35742 14.4561L7.35938 14.4502L7.36133 14.4482L7.3623 14.4453C7.36276 14.4444 7.3638 14.4433 7.36426 14.4424L7.36621 14.4365C7.36666 14.4356 7.36771 14.4345 7.36816 14.4336L7.36914 14.4316C7.3696 14.4307 7.37064 14.4296 7.37109 14.4287C7.37155 14.4278 7.37161 14.4267 7.37207 14.4258C7.37253 14.4249 7.37357 14.4238 7.37402 14.4229L7.375 14.4199L7.37598 14.418C7.37643 14.4171 7.37748 14.4159 7.37793 14.415C7.37838 14.4141 7.37846 14.413 7.37891 14.4121C7.37936 14.4112 7.3804 14.4101 7.38086 14.4092L7.38184 14.4062L7.38281 14.4043L7.38477 14.4014L7.38574 14.3984C7.3862 14.3975 7.38724 14.3964 7.3877 14.3955L7.38965 14.3896L7.3916 14.3877L7.39258 14.3848C7.39304 14.3839 7.39407 14.3828 7.39453 14.3818L7.39648 14.376L7.39844 14.374L7.39941 14.3711C7.39987 14.3702 7.40091 14.3691 7.40137 14.3682L7.40332 14.3623L7.40527 14.3604L7.40625 14.3574C7.40671 14.3565 7.40775 14.3554 7.4082 14.3545L7.41016 14.3486C7.41061 14.3477 7.41166 14.3466 7.41211 14.3457L7.41309 14.3438C7.41354 14.3428 7.41458 14.3417 7.41504 14.3408C7.41549 14.3399 7.41556 14.3388 7.41602 14.3379C7.41647 14.337 7.41751 14.3359 7.41797 14.335L7.41895 14.332L7.41992 14.3301C7.42037 14.3292 7.42143 14.328 7.42188 14.3271C7.42232 14.3263 7.4224 14.3251 7.42285 14.3242C7.42331 14.3233 7.42435 14.3222 7.4248 14.3213L7.42578 14.3184L7.42676 14.3164L7.42871 14.3135L7.42969 14.3105C7.43015 14.3096 7.43118 14.3085 7.43164 14.3076L7.43359 14.3018L7.43555 14.2998L7.43652 14.2969C7.43698 14.296 7.43802 14.2949 7.43848 14.2939L7.44043 14.2881L7.44238 14.2861L7.44336 14.2832C7.44382 14.2823 7.44485 14.2812 7.44531 14.2803L7.44727 14.2744L7.44922 14.2725L7.4502 14.2695C7.45065 14.2686 7.45169 14.2675 7.45215 14.2666L7.4541 14.2607C7.45455 14.2598 7.45561 14.2587 7.45605 14.2578L7.45703 14.2559C7.45749 14.2549 7.45853 14.2538 7.45898 14.2529C7.45944 14.252 7.45951 14.2509 7.45996 14.25C7.46042 14.2491 7.46146 14.248 7.46191 14.2471L7.46289 14.2441L7.46387 14.2422C7.46432 14.2413 7.46537 14.2402 7.46582 14.2393C7.46627 14.2384 7.46635 14.2372 7.4668 14.2363C7.46725 14.2354 7.46829 14.2343 7.46875 14.2334L7.46973 14.2305L7.4707 14.2285L7.47266 14.2256L7.47363 14.2227C7.47409 14.2217 7.47513 14.2206 7.47559 14.2197L7.47754 14.2139L7.47949 14.2119L7.48047 14.209C7.48093 14.2081 7.48196 14.207 7.48242 14.2061L7.48438 14.2002L7.48633 14.1982L7.4873 14.1953C7.48776 14.1944 7.4888 14.1933 7.48926 14.1924L7.49121 14.1865L7.49316 14.1846L7.49414 14.1816C7.4946 14.1807 7.49564 14.1796 7.49609 14.1787L7.49805 14.1729C7.4985 14.172 7.49955 14.1708 7.5 14.1699L7.50098 14.168C7.50143 14.1671 7.50247 14.166 7.50293 14.165C7.50339 14.1641 7.50345 14.163 7.50391 14.1621C7.50436 14.1612 7.5054 14.1601 7.50586 14.1592L7.50684 14.1562L7.50781 14.1543C7.50826 14.1534 7.50932 14.1523 7.50977 14.1514C7.51021 14.1505 7.51029 14.1493 7.51074 14.1484C7.5112 14.1475 7.51224 14.1464 7.5127 14.1455L7.51367 14.1426L7.51465 14.1406L7.5166 14.1377L7.51758 14.1348C7.51804 14.1339 7.51907 14.1328 7.51953 14.1318L7.52148 14.126L7.52344 14.124L7.52441 14.1211C7.52487 14.1202 7.52591 14.1191 7.52637 14.1182L7.52832 14.1123L7.53027 14.1104L7.53125 14.1074C7.53171 14.1065 7.53275 14.1054 7.5332 14.1045L7.53516 14.0986L7.53711 14.0967L7.53809 14.0938C7.53854 14.0928 7.53958 14.0917 7.54004 14.0908L7.54199 14.085C7.54244 14.0841 7.5435 14.0829 7.54395 14.082L7.54492 14.0801C7.54538 14.0792 7.54642 14.0781 7.54688 14.0771C7.54733 14.0762 7.5474 14.0751 7.54785 14.0742C7.54831 14.0733 7.54935 14.0722 7.5498 14.0713L7.55078 14.0684L7.55176 14.0664C7.55221 14.0655 7.55326 14.0644 7.55371 14.0635C7.55416 14.0626 7.55424 14.0614 7.55469 14.0605C7.55515 14.0596 7.55618 14.0585 7.55664 14.0576L7.55762 14.0547L7.55859 14.0527L7.56055 14.0498L7.56152 14.0469C7.56198 14.046 7.56302 14.0449 7.56348 14.0439L7.56543 14.0381L7.56738 14.0361L7.56836 14.0332C7.56882 14.0323 7.56985 14.0312 7.57031 14.0303L7.57227 14.0244L7.57422 14.0225L7.5752 14.0195C7.57565 14.0186 7.57669 14.0175 7.57715 14.0166L7.5791 14.0107L7.58105 14.0088L7.58203 14.0059C7.58249 14.0049 7.58353 14.0038 7.58398 14.0029L7.58594 13.9971C7.58639 13.9962 7.58744 13.995 7.58789 13.9941L7.58887 13.9922C7.58932 13.9913 7.59036 13.9902 7.59082 13.9893C7.59128 13.9883 7.59134 13.9872 7.5918 13.9863C7.59225 13.9854 7.59329 13.9843 7.59375 13.9834L7.59473 13.9805L7.5957 13.9785C7.59615 13.9776 7.59721 13.9765 7.59766 13.9756C7.5981 13.9747 7.59819 13.9736 7.59863 13.9727C7.59909 13.9717 7.60013 13.9706 7.60059 13.9697L7.60156 13.9668L7.60254 13.9648L7.60449 13.9619L7.60547 13.959C7.60593 13.9581 7.60696 13.957 7.60742 13.9561L7.60938 13.9502L7.61133 13.9482L7.6123 13.9453C7.61276 13.9444 7.6138 13.9433 7.61426 13.9424L7.61621 13.9365L7.61816 13.9346L7.61914 13.9316C7.6196 13.9307 7.62064 13.9296 7.62109 13.9287L7.62305 13.9229L7.625 13.9209L7.62598 13.918C7.62643 13.9171 7.62747 13.916 7.62793 13.915L7.62988 13.9092C7.63033 13.9083 7.63139 13.9071 7.63184 13.9062L7.63281 13.9043C7.63327 13.9034 7.63431 13.9023 7.63477 13.9014C7.63522 13.9005 7.63529 13.8993 7.63574 13.8984C7.6362 13.8975 7.63724 13.8964 7.6377 13.8955L7.63867 13.8926L7.63965 13.8906C7.6401 13.8897 7.64115 13.8886 7.6416 13.8877C7.64205 13.8868 7.64213 13.8857 7.64258 13.8848C7.64304 13.8839 7.64407 13.8828 7.64453 13.8818L7.64551 13.8789L7.64648 13.877L7.64844 13.874L7.64941 13.8711C7.64987 13.8702 7.65091 13.8691 7.65137 13.8682L7.65332 13.8623L7.65527 13.8604L7.65625 13.8574C7.65671 13.8565 7.65775 13.8554 7.6582 13.8545L7.66016 13.8486L7.66211 13.8467L7.66309 13.8438C7.66354 13.8428 7.66458 13.8417 7.66504 13.8408L7.66699 13.835L7.66895 13.833L7.66992 13.8301C7.67038 13.8292 7.67142 13.8281 7.67188 13.8271L7.67383 13.8213C7.67428 13.8204 7.67533 13.8193 7.67578 13.8184L7.67676 13.8164C7.67722 13.8155 7.67825 13.8144 7.67871 13.8135C7.67917 13.8126 7.67923 13.8115 7.67969 13.8105C7.68015 13.8096 7.68118 13.8085 7.68164 13.8076L7.68262 13.8047L7.68359 13.8027C7.68404 13.8018 7.6851 13.8007 7.68555 13.7998C7.68599 13.7989 7.68608 13.7978 7.68652 13.7969C7.68698 13.796 7.68802 13.7949 7.68848 13.7939L7.68945 13.791L7.69043 13.7891L7.69238 13.7861L7.69336 13.7832C7.69382 13.7823 7.69485 13.7812 7.69531 13.7803L7.69727 13.7744L7.69922 13.7725L7.7002 13.7695C7.70065 13.7686 7.70169 13.7675 7.70215 13.7666L7.7041 13.7607L7.70605 13.7588L7.70703 13.7559C7.70749 13.7549 7.70853 13.7538 7.70898 13.7529L7.71094 13.7471L7.71289 13.7451L7.71387 13.7422C7.71432 13.7413 7.71536 13.7402 7.71582 13.7393L7.71777 13.7334C7.71822 13.7325 7.71928 13.7314 7.71973 13.7305L7.7207 13.7285C7.72116 13.7276 7.7222 13.7265 7.72266 13.7256C7.72311 13.7247 7.72318 13.7236 7.72363 13.7227C7.72409 13.7217 7.72513 13.7206 7.72559 13.7197L7.72656 13.7168L7.72754 13.7148C7.72799 13.7139 7.72904 13.7128 7.72949 13.7119C7.72994 13.711 7.73002 13.7099 7.73047 13.709C7.73093 13.7081 7.73196 13.707 7.73242 13.7061L7.7334 13.7031L7.73438 13.7012L7.73633 13.6982L7.7373 13.6953C7.73776 13.6944 7.7388 13.6933 7.73926 13.6924L7.74121 13.6865L7.74316 13.6846L7.74414 13.6816C7.7446 13.6807 7.74564 13.6796 7.74609 13.6787L7.74805 13.6729L7.75 13.6709L7.75098 13.668C7.75143 13.6671 7.75247 13.666 7.75293 13.665L7.75488 13.6592L7.75684 13.6572L7.75781 13.6543C7.75827 13.6534 7.75931 13.6523 7.75977 13.6514L7.76172 13.6455C7.76217 13.6446 7.76322 13.6435 7.76367 13.6426L7.76465 13.6406C7.76511 13.6397 7.76614 13.6386 7.7666 13.6377C7.76706 13.6368 7.76712 13.6357 7.76758 13.6348C7.76804 13.6339 7.76907 13.6328 7.76953 13.6318L7.77051 13.6289L7.77148 13.627C7.77193 13.6261 7.77299 13.6249 7.77344 13.624C7.77389 13.6231 7.77397 13.622 7.77441 13.6211C7.77487 13.6202 7.77591 13.6191 7.77637 13.6182L7.77734 13.6152L7.77832 13.6133L7.78027 13.6104L7.78125 13.6074C7.78171 13.6065 7.78275 13.6054 7.7832 13.6045L7.78516 13.5986L7.78711 13.5967L7.78809 13.5938C7.78854 13.5928 7.78958 13.5917 7.79004 13.5908L7.79199 13.585L7.79395 13.583L7.79492 13.5801C7.79538 13.5792 7.79642 13.5781 7.79688 13.5771L7.79883 13.5713L7.80078 13.5693L7.80176 13.5664C7.80222 13.5655 7.80325 13.5644 7.80371 13.5635L7.80566 13.5576C7.80611 13.5567 7.80717 13.5556 7.80762 13.5547L7.80859 13.5527C7.80905 13.5518 7.81009 13.5507 7.81055 13.5498C7.811 13.5489 7.81107 13.5478 7.81152 13.5469C7.81198 13.546 7.81302 13.5449 7.81348 13.5439L7.81445 13.541L7.81543 13.5391C7.81588 13.5382 7.81693 13.537 7.81738 13.5361C7.81783 13.5352 7.81791 13.5341 7.81836 13.5332C7.81882 13.5323 7.81985 13.5312 7.82031 13.5303L7.82129 13.5273L7.82227 13.5254L7.82422 13.5225L7.8252 13.5195C7.82565 13.5186 7.82669 13.5175 7.82715 13.5166L7.8291 13.5107L7.83105 13.5088L7.83203 13.5059C7.83249 13.5049 7.83353 13.5038 7.83398 13.5029L7.83594 13.4971L7.83789 13.4951L7.83887 13.4922C7.83932 13.4913 7.84036 13.4902 7.84082 13.4893L7.84277 13.4834L7.84473 13.4814L7.8457 13.4785C7.84616 13.4776 7.8472 13.4765 7.84766 13.4756L7.84961 13.4697C7.85006 13.4688 7.85111 13.4677 7.85156 13.4668L7.85254 13.4648C7.853 13.4639 7.85403 13.4628 7.85449 13.4619C7.85495 13.461 7.85501 13.4599 7.85547 13.459L7.86035 13.4502L8.03711 13.0967C8.1276 12.9062 8.21288 12.7058 8.29688 12.4971C7.99459 12.1397 7.74588 11.7563 7.5625 11.3438L7.5498 11.3135L7.53809 11.2832C7.33975 10.7449 7.18293 10.2034 7.06836 9.65918C6.95726 9.13145 6.87408 8.60261 6.81836 8.07324L6.81738 8.06836C6.77191 7.61361 6.68057 7.15529 6.54199 6.69336L6.40723 6.24316L6.66797 5.85156C7.04332 5.28854 7.50549 4.81878 8.05566 4.45605C8.51064 4.13489 9.00065 3.87365 9.52246 3.6709L9.74805 3.58691C10.3443 3.36182 10.9753 3.1946 11.6387 3.08203C12.2498 2.95469 12.899 2.8139 13.5869 2.66113C14.5194 2.37087 15.3865 2.12837 16.1875 1.93555L16.9814 1.75586C17.9817 1.5197 18.9593 1.33468 19.9141 1.20117L20.6406 1.08594C21.3682 0.977054 22.1166 0.882893 22.8857 0.803711C23.8693 0.677507 25.0084 0.500674 26.3047 0.272461V0.25H26.4375L27.1992 0.115234L27.2441 0.25ZM22.6133 11.4023C22.5865 11.4291 22.5633 11.4569 22.542 11.4844C22.5647 11.4572 22.587 11.4286 22.6133 11.4023ZM27.3438 1.15625L27.5518 1.07812L27.5693 1.00684L27.459 0.896484L27.4717 0.933594C27.4683 0.923342 27.4603 0.909011 27.4521 0.889648L27.3438 0.78125V1.15625ZM27.5723 1.07031L27.6162 1.05371L27.5879 1.02539L27.5723 1.07031ZM27.7998 0.388672L27.7041 0.673828L27.833 0.973633C27.8108 0.921766 27.7608 0.842225 27.6719 0.770508L27.6562 0.820312L27.748 1.00488L27.8701 0.958984L28.0508 0.418945C28.0121 0.406053 27.9207 0.382475 27.7998 0.388672ZM27.6299 0.767578L27.6357 0.742188C27.6295 0.737888 27.6238 0.732696 27.6172 0.728516C27.6141 0.726581 27.6104 0.725485 27.6074 0.723633L27.6299 0.767578ZM27.7227 0.396484C27.683 0.402558 27.6412 0.411604 27.5977 0.425781L27.6719 0.598633L27.7227 0.396484Z" fill="black"/>
</g>
<defs>
<filter id="filter0_d_4_25" x="0.271484" y="0.115234" width="35.6191" height="39.204" filterUnits="userSpaceOnUse" color-interpolation-filters="sRGB">
<feFlood flood-opacity="0" result="BackgroundImageFix"/>
<feColorMatrix in="SourceAlpha" type="matrix" values="0 0 0 0 0 0 0 0 0 0 0 0 0 0 0 0 0 0 127 0" result="hardAlpha"/>
<feOffset dy="4"/>
<feGaussianBlur stdDeviation="2"/>
<feComposite in2="hardAlpha" operator="out"/>
<feColorMatrix type="matrix" values="0 0 0 0 0 0 0 0 0 0 0 0 0 0 0 0 0 0 0.25 0"/>
<feBlend mode="normal" in2="BackgroundImageFix" result="effect1_dropShadow_4_25"/>
<feBlend mode="normal" in="SourceGraphic" in2="effect1_dropShadow_4_25" result="shape"/>
</filter>
</defs>
</svg>
