<svg width="38" height="41" viewBox="0 0 38 41" fill="none" xmlns="http://www.w3.org/2000/svg">
<g id="Stroke" filter="url(#filter0_d_4_29)">
<path d="M7.52344 29.8281C7.52344 29.9583 7.58854 30.0365 7.71875 30.0625C7.82292 30.349 7.95312 30.5963 8.10938 30.8047C8.29167 31.013 8.48698 31.2213 8.69531 31.4297C9.03385 31.3776 9.3724 31.3646 9.71094 31.3906C10.0755 31.4167 10.4271 31.4297 10.7656 31.4297C11.1302 31.4557 11.4557 31.4427 11.7422 31.3906C12.0547 31.3385 12.3281 31.2083 12.5625 31C12.4844 31.1823 12.5104 31.2604 12.6406 31.2344C12.7969 31.2083 12.9271 31.2083 13.0312 31.2344C13.0846 31.2186 13.137 31.1997 13.1904 31.1836L13.4814 31.3935C13.4844 31.386 13.495 31.3578 13.5039 31.3135C13.5097 31.2844 13.5231 31.2001 13.5127 31.084C14.5011 30.7741 15.5002 30.4098 16.5078 29.9844C17.6797 29.4635 18.7865 28.8646 19.8281 28.1875C20.8958 27.4844 21.8464 26.6771 22.6797 25.7656C23.513 24.8542 24.151 23.8255 24.5938 22.6797C24.8542 22.0807 24.9583 21.4687 24.9062 20.8437C24.8802 20.2187 24.8411 19.5156 24.7891 18.7344C24.5807 18.2396 24.2812 17.7838 23.8906 17.3672C23.526 16.9245 23.2917 16.5078 23.1875 16.1172C23.0312 15.9349 22.888 15.8698 22.7578 15.9219C22.6536 15.974 22.5495 15.8698 22.4453 15.6094C22.4714 15.3229 22.4323 15.0104 22.3281 14.6719C22.224 14.3073 22.0547 13.9687 21.8203 13.6562C21.5859 13.3437 21.2995 13.0833 20.9609 12.875C20.6224 12.6406 20.2188 12.5104 19.75 12.4844C19.6719 12.1719 19.5026 11.9505 19.2422 11.8203C18.9818 11.6641 18.6823 11.5469 18.3438 11.4687L17.4062 11.2344C17.0938 11.1302 16.8464 10.9609 16.6641 10.7266C16.7161 10.5703 16.7031 10.4661 16.625 10.4141C16.5469 10.362 16.5208 10.2708 16.5469 10.1406C17.0677 10.0885 17.5625 10.0234 18.0312 9.94531C18.5 9.84114 18.8776 9.65885 19.1641 9.39843C19.5286 9.45051 19.9193 9.42447 20.3359 9.32031C20.7526 9.1901 21.1693 9.07291 21.5859 8.96874C22.0286 8.83853 22.4453 8.77343 22.8359 8.77343C23.2266 8.74739 23.5651 8.89062 23.8516 9.20312C24.7891 9.09895 25.8438 9.00781 27.0156 8.92968C27.6889 8.8848 28.3619 8.90208 29.0352 8.97753C28.9196 9.19535 28.8192 9.42674 28.7344 9.67187C28.7467 9.77074 28.7547 9.86451 28.7598 9.95312C28.1996 9.89925 27.6405 9.8905 27.082 9.92773C25.9215 10.0051 24.8818 10.0951 23.9619 10.1973L23.457 10.2529L23.1143 9.8789C23.0135 9.76898 22.9624 9.76747 22.9023 9.77148L22.8691 9.77343H22.8359C22.5563 9.77343 22.2353 9.81976 21.8682 9.92773L21.8486 9.93359L21.8281 9.93847C21.4306 10.0379 21.0323 10.1499 20.6338 10.2744L20.6064 10.2832L20.5781 10.29C20.2073 10.3827 19.8363 10.4285 19.4688 10.4219C19.3419 10.5052 19.2091 10.5786 19.0713 10.6435C19.2865 10.7205 19.4926 10.8139 19.6885 10.9258C19.6895 10.9263 19.6913 10.9272 19.6924 10.9277C19.7136 10.9399 19.7359 10.9503 19.7568 10.9629L19.7559 10.9639C20.0368 11.1178 20.2573 11.3261 20.4229 11.5723C20.8009 11.6579 21.1576 11.8057 21.4844 12.0234H21.4854C21.9288 12.2964 22.3091 12.642 22.6201 13.0566C22.9254 13.4637 23.1513 13.912 23.29 14.3975H23.2891C23.3541 14.6124 23.4022 14.8296 23.4287 15.0478C23.6048 15.1398 23.7479 15.2593 23.8506 15.3623L23.9463 15.4668L24.0947 15.6396L24.1533 15.8594C24.208 16.0646 24.3513 16.3518 24.6553 16.7226C25.0471 17.1478 25.3678 17.6132 25.6094 18.1201L25.7109 18.3467L25.7754 18.501L25.7871 18.668C25.8396 19.4553 25.8788 20.1668 25.9053 20.8018H25.9043C25.9617 21.5703 25.8315 22.3195 25.5254 23.0391L25.5264 23.04C25.0386 24.3024 24.3347 25.4377 23.418 26.4404C22.5269 27.415 21.5123 28.2754 20.3779 29.0225L20.373 29.0264C19.2858 29.733 18.1325 30.3569 16.9141 30.8984L16.9053 30.9023L16.8965 30.9053C15.6924 31.4137 14.4983 31.8436 13.3145 32.1934L13.0527 32.2705L12.8379 32.2158C12.8296 32.2167 12.8184 32.2184 12.8047 32.2207L12.8037 32.2197C12.7209 32.2342 12.5943 32.2486 12.4453 32.2285C12.2734 32.296 12.0932 32.3458 11.9062 32.3769L11.9053 32.376C11.5404 32.4408 11.1536 32.4538 10.752 32.4287C10.3921 32.4284 10.0213 32.4149 9.63965 32.3877H9.63379C9.3725 32.3676 9.11095 32.3775 8.84766 32.418L8.34668 32.4951L7.98828 32.1367C7.76525 31.9137 7.55425 31.6889 7.35645 31.4629L7.33203 31.4346L7.30957 31.4043C7.15682 31.2006 7.02864 30.9786 6.91992 30.7432C6.88033 30.7072 6.84038 30.669 6.80371 30.625C6.79534 30.6149 6.78819 30.6039 6.78027 30.5937H6.36719V29.5937C6.36719 29.506 6.37388 29.3835 6.40137 29.2461C6.33756 29.1388 6.28692 29.0175 6.25977 28.8818C6.21183 28.6422 6.24679 28.4266 6.30176 28.2617L6.33105 28.1738L6.37598 28.0928C6.37721 28.0905 6.40278 28.0534 6.38086 27.9219L6.37305 27.8789L6.37012 27.835L6.29199 26.8193C6.25841 26.3828 6.29016 25.9535 6.40234 25.542H6.40332C6.57023 24.9021 7.01474 24.4526 7.53516 24.1553L7.81152 23.9971L8.12793 24.0283C9.10277 24.1234 9.99907 24.0736 10.8223 23.8906L10.8281 23.8896C11.7318 23.6942 12.5666 23.4275 13.334 23.0918L13.3438 23.0869C14.174 22.7347 14.9501 22.3587 15.6729 21.96C16.3437 21.58 16.9976 21.2282 17.6338 20.9033C17.7346 20.6917 17.8592 20.4919 18.0146 20.3105L18.0391 20.2812L18.0664 20.2539C18.2497 20.0706 18.4354 19.8985 18.6221 19.7363C18.7729 19.585 18.9118 19.435 19.04 19.2871C19.0507 19.2721 19.0619 19.2569 19.0723 19.2402L18.9902 19.1992C18.3638 18.886 17.6979 18.6194 16.9922 18.4004C16.3889 18.2132 15.8404 18.0048 15.3516 17.7734C14.9648 17.897 14.5473 17.9106 14.1211 17.7685C13.862 17.6822 13.5393 17.5934 13.1494 17.5C12.0616 17.4447 11.0192 17.3398 10.0234 17.1826H10.0195C8.97439 17.0131 7.95869 16.7161 6.97363 16.2939L6.56055 16.1172L6.49023 15.9072L6.17285 15.9658L5.80566 15.4404C5.65423 15.2241 5.49603 15.0351 5.33203 14.8711L5.28809 14.8271L5.25 14.7783C5.03154 14.4974 4.83289 14.1905 4.65332 13.8613L4.47949 13.543L4.55078 13.1865C4.62333 12.8238 4.66697 12.5511 4.68945 12.3594C4.68214 12.3382 4.66098 12.2892 4.60547 12.2129L4.33105 11.8359L4.44434 11.3828C4.54772 10.9693 4.62262 10.6533 4.67188 10.4316L4.68359 10.3809L4.7002 10.332C4.70914 10.3048 4.73995 10.153 4.69531 9.79589L4.66602 9.56445L4.74219 9.34472C5.022 8.53638 5.4509 7.83034 6.03516 7.24609L6.04492 7.23632L6.05469 7.22753C6.60094 6.71003 7.19432 6.27278 7.83496 5.91992C8.30983 5.63932 8.80203 5.39938 9.31055 5.19921L10.2676 4.8496C10.4203 4.79542 10.5711 4.74396 10.7197 4.69433C10.726 4.67734 10.731 4.66309 10.7354 4.65234L10.9404 4.14062L11.4824 4.04003C12.8355 3.78944 14.1915 3.42552 15.5508 2.94726L15.5566 2.94531C17.0127 2.44231 18.4949 1.99257 20.0029 1.5957C21.5521 1.18801 23.141 0.942386 24.7676 0.860345C26.2473 0.762384 27.7758 0.914092 29.3486 1.30273L30.0264 1.48437L30.5322 1.62988L30.6982 2.1289C30.7758 2.36143 30.8837 2.58706 31.0234 2.80663L31.2969 3.23632C31.3694 3.35037 31.4663 3.50296 31.5439 3.62499C31.7627 3.90206 31.9591 4.1834 32.1309 4.46972C32.2906 4.73587 32.4063 5.01969 32.4766 5.31738C32.6837 5.53592 32.8661 5.7706 33.0234 6.0205C32.7027 6.13417 32.3889 6.2646 32.082 6.41308C31.9317 6.1993 31.7549 5.99538 31.5469 5.80468C31.5208 5.51822 31.4297 5.24479 31.2734 4.98437C31.1172 4.72395 30.9349 4.46354 30.7266 4.20312L30.1797 3.34374C29.9974 3.05729 29.8542 2.75781 29.75 2.44531C28.0312 1.95051 26.3906 1.7552 24.8281 1.85937C23.2656 1.93749 21.7422 2.17187 20.2578 2.56249C18.7734 2.95312 17.3151 3.39583 15.8828 3.89062C14.4766 4.38541 13.0703 4.76301 11.6641 5.02343C11.612 5.15364 11.638 5.21874 11.7422 5.21874C11.8464 5.21874 11.8984 5.27083 11.8984 5.37499C11.3516 5.53124 10.7656 5.72656 10.1406 5.96093C9.51562 6.16926 8.91667 6.4427 8.34375 6.78124C7.77083 7.09374 7.23698 7.48437 6.74219 7.95312C6.27344 8.42187 5.92188 8.99479 5.6875 9.67187C5.73958 10.0885 5.72656 10.4141 5.64844 10.6484C5.59635 10.8828 5.51823 11.2083 5.41406 11.625C5.6224 11.9115 5.71354 12.1849 5.6875 12.4453C5.66146 12.6797 5.60938 12.9922 5.53125 13.3828C5.6875 13.6693 5.85677 13.9297 6.03906 14.1641C6.2474 14.3724 6.44271 14.6068 6.625 14.8672C6.91146 14.8151 7.09375 14.8542 7.17188 14.9844C7.25 15.0885 7.3151 15.2187 7.36719 15.375C8.27865 15.7656 9.21615 16.0391 10.1797 16.1953C11.1693 16.3516 12.2109 16.4557 13.3047 16.5078C13.7474 16.612 14.125 16.7161 14.4375 16.8203C14.75 16.9245 15.0625 16.8724 15.375 16.6641C15.8958 16.9505 16.5339 17.2109 17.2891 17.4453C18.0443 17.6797 18.7604 17.9661 19.4375 18.3047C19.4896 18.3047 19.5417 18.3177 19.5938 18.3437L19.8281 18.4219C19.8281 18.526 19.8542 18.6042 19.9062 18.6562L20.0625 18.8125C20.1146 18.8385 20.1536 18.8776 20.1797 18.9297C20.2057 18.9818 20.2057 19.0599 20.1797 19.1641C20.1016 19.4505 19.9844 19.6979 19.8281 19.9062C19.6719 20.0885 19.5026 20.2708 19.3203 20.4531C19.138 20.6094 18.9557 20.7786 18.7734 20.9609C18.6172 21.1432 18.5 21.3646 18.4219 21.625C17.6927 21.9896 16.9375 22.3932 16.1562 22.8359C15.401 23.2526 14.5938 23.6432 13.7344 24.0078C12.901 24.3724 12.0026 24.6588 11.0391 24.8672C10.1016 25.0755 9.09896 25.1276 8.03125 25.0234C7.66667 25.2318 7.44531 25.4922 7.36719 25.8047C7.28906 26.0911 7.26302 26.4036 7.28906 26.7422L7.36719 27.7578C7.41927 28.0703 7.38021 28.3437 7.25 28.5781C7.22396 28.6562 7.23698 28.7213 7.28906 28.7734C7.36719 28.8255 7.43229 28.8776 7.48438 28.9297C7.5625 28.9557 7.60156 28.9948 7.60156 29.0469C7.6276 29.0729 7.58854 29.125 7.48438 29.2031L7.40625 29.3594C7.38021 29.4115 7.36719 29.4896 7.36719 29.5937C7.4974 29.5937 7.54948 29.6719 7.52344 29.8281Z" fill="black"/>
</g>
<defs>
<filter id="filter0_d_4_29" x="0.331055" y="0.831421" width="36.6924" height="39.6637" filterUnits="userSpaceOnUse" color-interpolation-filters="sRGB">
<feFlood flood-opacity="0" result="BackgroundImageFix"/>
<feColorMatrix in="SourceAlpha" type="matrix" values="0 0 0 0 0 0 0 0 0 0 0 0 0 0 0 0 0 0 127 0" result="hardAlpha"/>
<feOffset dy="4"/>
<feGaussianBlur stdDeviation="2"/>
<feComposite in2="hardAlpha" operator="out"/>
<feColorMatrix type="matrix" values="0 0 0 0 0 0 0 0 0 0 0 0 0 0 0 0 0 0 0.25 0"/>
<feBlend mode="normal" in2="BackgroundImageFix" result="effect1_dropShadow_4_29"/>
<feBlend mode="normal" in="SourceGraphic" in2="effect1_dropShadow_4_29" result="shape"/>
</filter>
</defs>
</svg>
