<svg width="37" height="40" viewBox="0 0 37 40" fill="none" xmlns="http://www.w3.org/2000/svg">
<g id="Stroke" filter="url(#filter0_d_4_30)">
<path d="M27.4238 0.25H27.4844C27.6511 0.25 27.8013 0.28524 27.9209 0.320312L27.9219 0.319336C28.0482 0.350911 28.2107 0.397352 28.3613 0.472656L28.1328 0.927734L29.0166 0.597656C29.258 1.02005 29.5637 1.36493 29.9355 1.64258C30.2611 1.86452 30.6155 2.06992 31 2.25781L31.3984 2.44238L31.9297 2.67285L31.9941 3.24902C32.0173 3.45744 32.0355 3.72284 31.9961 3.97656C31.9888 4.12737 31.9671 4.27607 31.9307 4.42188L31.9219 4.45508H31.9229C31.9224 4.46402 31.9219 4.47628 31.9219 4.49219C31.9219 4.46868 31.9196 4.47476 31.9277 4.52344C31.9352 4.56796 31.9481 4.63221 31.9697 4.71875L32.0703 5.11719L31.8604 5.4707C31.3921 6.26092 30.8268 6.91477 30.1533 7.40039L30.1543 7.40137C29.5532 7.85215 28.902 8.20124 28.2031 8.44434C27.5441 8.67353 26.8485 8.84242 26.1182 8.95508L26.1191 8.95605C25.4768 9.05883 24.8071 9.17486 24.1113 9.30371L24.0967 9.30664L24.082 9.30859C23.4526 9.40543 22.8064 9.55165 22.1436 9.74805C21.5316 9.92935 20.9218 10.2038 20.3135 10.5781L19.8965 10.835L19.4375 10.6631C19.3843 10.6432 19.3551 10.6392 19.3447 10.6387L19.2744 10.6484H19.2031C19.1571 10.6484 19.081 10.6567 18.9697 10.6885C18.7642 10.7472 18.5359 10.8041 18.2871 10.8594L18.2861 10.8574C18.0502 10.9132 17.8077 10.9259 17.5664 10.9141C17.3932 11.0197 17.2093 11.1055 17.0166 11.1729C17.6604 11.1972 18.348 11.1895 19.0801 11.1455L19.5547 11.1123C20.8941 10.9813 22.2085 10.8896 23.498 10.8369L24.3525 10.8018L24.5195 11.6396C24.5354 11.7192 24.5552 11.8529 24.5488 12.0117C24.6467 12.1047 24.7418 12.202 24.833 12.3047L25.1455 12.6562C25.2374 12.7596 25.3208 12.8536 25.4102 12.9541C25.5842 13.1066 25.7545 13.2381 25.9199 13.3516C25.9585 13.3685 26.0262 13.3893 26.1514 13.3789L26.8262 13.3223L27.1289 13.9277C27.3015 14.2729 27.4222 14.6369 27.4912 15.0166C27.5831 15.5221 27.5055 16.0176 27.3135 16.4785L27.1943 16.7637L26.9355 16.9326C26.431 17.2606 25.9388 17.6003 25.46 17.9531L25.4463 17.9639L25.4316 17.9736C24.9036 18.3349 24.3491 18.6676 23.7686 18.9717L23.7676 18.9707C23.1821 19.2909 22.5476 19.5503 21.8662 19.749C21.1379 19.9615 20.3648 20.0481 19.5547 20.0225V20.0234H19.2031C19.046 20.0234 18.9081 19.9904 18.7949 19.9512C18.4642 20.0262 18.1178 20.0415 17.7773 20.0215L17.7441 20.0195L17.7119 20.0156C17.4194 19.9791 17.2662 20.0186 17.1953 20.0508L16.8262 20.2188L16.4453 20.082C16.214 19.9994 15.9027 19.9453 15.4922 19.9453C15.216 19.9453 14.9462 19.926 14.6846 19.8857C14.3741 20.3642 14.0762 20.8631 13.79 21.3818L13.7861 21.3877L13.7822 21.3945C13.5973 21.7181 13.4236 22.0539 13.2598 22.4014C13.713 22.4378 14.1053 22.4508 14.4395 22.4385C15.1168 22.4134 15.7517 22.3632 16.3447 22.2891C16.9714 22.2107 17.6111 22.132 18.2637 22.0537H18.2686C18.9488 21.9752 19.7405 21.9479 20.6367 21.9648C21.3359 21.6594 22.1032 21.4582 22.9307 21.3535C23.74 21.2304 24.4784 21.0598 25.1475 20.8447L25.4434 20.75L25.7402 20.8389C26.1992 20.9766 26.5773 21.2474 26.8701 21.6074L27.0254 21.791C27.1599 21.9555 27.2864 22.1269 27.4072 22.3037C27.5217 22.4325 27.6337 22.5433 27.7402 22.6406L28.2119 22.5557L28.582 22.9258C28.8449 23.1887 29.0144 23.5136 29.083 23.876C29.0978 23.9294 29.1118 23.9824 29.125 24.0352L30.5586 23.8564L29.751 25.5156C29.2176 26.6105 28.5846 27.5146 27.8301 28.1748L27.8291 28.1738C27.1419 28.7977 26.3544 29.287 25.4727 29.6396L25.4648 29.6426L25.4561 29.6455C24.6265 29.9602 23.7003 30.1974 22.6836 30.3623L22.6719 30.3643L22.6611 30.3652C21.7389 30.4933 20.6966 30.6605 19.5342 30.8672L19.5332 30.8662C19.1554 30.9344 18.7594 30.9486 18.375 30.8525L18.2969 30.834L18.2236 30.8018C18.1846 30.785 18.1398 30.7755 18.0859 30.7705C17.3617 30.8972 16.5126 31.0239 15.541 31.1484L15.54 31.1475C14.4993 31.2842 13.4461 31.3398 12.3809 31.3125C11.2959 31.2847 10.2463 31.1446 9.23437 30.8916C8.14811 30.62 7.20521 30.1265 6.44043 29.3936L6.42578 29.3789C6.11055 29.0637 5.87694 28.6903 5.72461 28.2715L5.70996 28.2324L5.70215 28.2031C5.6911 28.1907 5.65379 28.1551 5.56543 28.1074L5.11523 27.8652L5.04785 27.3584C4.99984 26.9984 4.92651 26.5811 4.82617 26.1045L4.82031 26.0762L4.81543 26.0469C4.73973 25.5422 4.65179 25.0373 4.55078 24.5322L4.54492 24.5049L4.54101 24.4775C4.46101 23.9175 4.39438 23.3695 4.34082 22.834L4.33789 22.8076L4.33691 22.7822C4.30808 22.1767 4.33624 21.6057 4.42969 21.0762L4.43262 21.0547L4.4375 21.0332C4.50677 20.7215 4.61206 20.4224 4.75391 20.1387L4.77539 20.0967L4.80078 20.0557C4.92506 19.8568 5.03523 19.673 5.13184 19.5039L5.1416 19.4863L5.15234 19.4697C5.23468 19.3379 5.2804 19.2259 5.30371 19.1328L5.31738 19.0771L5.33691 19.0234C5.34029 19.0144 5.34204 19.0082 5.34277 19.0049L5.34375 19C5.3437 18.9995 5.34386 18.9965 5.34277 18.9922L5.08008 17.9414L5.84375 17.8135C5.93811 17.6921 6.05828 17.5818 6.20898 17.498C6.34558 17.1051 6.4895 16.7291 6.64062 16.3701C6.85718 15.8558 7.08771 15.3539 7.33203 14.8652C7.33249 14.8643 7.33353 14.8632 7.33398 14.8623L7.33496 14.8594L7.33594 14.8574C7.33639 14.8565 7.33744 14.8554 7.33789 14.8545C7.33834 14.8536 7.33842 14.8525 7.33887 14.8516C7.33932 14.8506 7.34036 14.8495 7.34082 14.8486L7.3418 14.8457L7.34277 14.8438L7.34473 14.8408L7.3457 14.8379C7.34616 14.837 7.3472 14.8359 7.34766 14.835L7.34961 14.8291L7.35156 14.8271L7.35254 14.8242C7.353 14.8233 7.35403 14.8222 7.35449 14.8213L7.35644 14.8154L7.3584 14.8135L7.35937 14.8105C7.35983 14.8096 7.36087 14.8085 7.36133 14.8076L7.36328 14.8018L7.36523 14.7998L7.36621 14.7969C7.36667 14.796 7.36771 14.7949 7.36816 14.7939L7.37012 14.7881C7.37057 14.7872 7.37162 14.7861 7.37207 14.7852L7.37305 14.7832C7.3735 14.7823 7.37454 14.7812 7.375 14.7803C7.37545 14.7794 7.37552 14.7783 7.37598 14.7773C7.37643 14.7764 7.37747 14.7753 7.37793 14.7744L7.37891 14.7715L7.37988 14.7695C7.38033 14.7686 7.38139 14.7675 7.38183 14.7666C7.38228 14.7657 7.38236 14.7646 7.38281 14.7637C7.38327 14.7628 7.38431 14.7617 7.38476 14.7607L7.38574 14.7578L7.38672 14.7559L7.38867 14.7529L7.38965 14.75C7.39011 14.7491 7.39114 14.748 7.3916 14.7471L7.39355 14.7412L7.39551 14.7393L7.39648 14.7363C7.39694 14.7354 7.39798 14.7343 7.39844 14.7334L7.40039 14.7275L7.40234 14.7256L7.40332 14.7227C7.40378 14.7217 7.40481 14.7206 7.40527 14.7197L7.40723 14.7139L7.40918 14.7119L7.41016 14.709C7.41061 14.7081 7.41165 14.707 7.41211 14.7061L7.41406 14.7002C7.41451 14.6993 7.41557 14.6982 7.41601 14.6973L7.41699 14.6953C7.41745 14.6944 7.41849 14.6933 7.41894 14.6924C7.4194 14.6915 7.41947 14.6904 7.41992 14.6895C7.42038 14.6885 7.42142 14.6874 7.42187 14.6865L7.42285 14.6836L7.42383 14.6816C7.42428 14.6807 7.42533 14.6796 7.42578 14.6787C7.42623 14.6778 7.42631 14.6767 7.42676 14.6758C7.42721 14.6749 7.42825 14.6738 7.42871 14.6729L7.42969 14.6699L7.43066 14.668L7.43262 14.665L7.43359 14.6621C7.43405 14.6612 7.43509 14.6601 7.43555 14.6592L7.4375 14.6533L7.43945 14.6514L7.44043 14.6484C7.44089 14.6475 7.44192 14.6464 7.44238 14.6455L7.44433 14.6396L7.44629 14.6377L7.44726 14.6348C7.44772 14.6339 7.44876 14.6328 7.44922 14.6318L7.45117 14.626L7.45312 14.624L7.4541 14.6211C7.45456 14.6202 7.4556 14.6191 7.45605 14.6182L7.45801 14.6123C7.45846 14.6114 7.45951 14.6103 7.45996 14.6094L7.46094 14.6074C7.46139 14.6065 7.46243 14.6054 7.46289 14.6045C7.46335 14.6036 7.46341 14.6025 7.46387 14.6016C7.46432 14.6006 7.46536 14.5995 7.46582 14.5986L7.4668 14.5957L7.46777 14.5938C7.46822 14.5929 7.46928 14.5917 7.46973 14.5908C7.47017 14.5899 7.47025 14.5888 7.4707 14.5879C7.47116 14.587 7.4722 14.5859 7.47266 14.585L7.47363 14.582L7.47461 14.5801L7.47656 14.5771L7.47754 14.5742C7.478 14.5733 7.47903 14.5722 7.47949 14.5713L7.48144 14.5654L7.4834 14.5635L7.48437 14.5605C7.48483 14.5596 7.48587 14.5585 7.48633 14.5576L7.48828 14.5518L7.49023 14.5498L7.49121 14.5469C7.49167 14.546 7.49271 14.5449 7.49316 14.5439L7.49512 14.5381L7.49707 14.5361L7.49805 14.5332C7.4985 14.5323 7.49954 14.5312 7.5 14.5303L7.50195 14.5244C7.5024 14.5235 7.50346 14.5224 7.50391 14.5215L7.50488 14.5195C7.50534 14.5186 7.50638 14.5175 7.50683 14.5166C7.50729 14.5157 7.50736 14.5146 7.50781 14.5137C7.50827 14.5128 7.50931 14.5117 7.50976 14.5107L7.51074 14.5078L7.51172 14.5059C7.51217 14.505 7.51322 14.5038 7.51367 14.5029C7.51412 14.502 7.5142 14.5009 7.51465 14.5C7.51511 14.4991 7.51614 14.498 7.5166 14.4971L7.51758 14.4941L7.51855 14.4922L7.52051 14.4893L7.52148 14.4863C7.52194 14.4854 7.52298 14.4843 7.52344 14.4834L7.52539 14.4775L7.52734 14.4756L7.52832 14.4727C7.52878 14.4717 7.52981 14.4706 7.53027 14.4697L7.53223 14.4639L7.53418 14.4619L7.53516 14.459C7.53561 14.4581 7.53665 14.457 7.53711 14.4561L7.53906 14.4502L7.54101 14.4482L7.54199 14.4453C7.54245 14.4444 7.54349 14.4433 7.54394 14.4424L7.5459 14.4365C7.54635 14.4356 7.5474 14.4345 7.54785 14.4336L7.54883 14.4316C7.54928 14.4307 7.55032 14.4296 7.55078 14.4287C7.55124 14.4278 7.5513 14.4267 7.55176 14.4258C7.55221 14.4249 7.55325 14.4238 7.55371 14.4229L7.55469 14.4199L7.55566 14.418C7.55611 14.4171 7.55717 14.4159 7.55762 14.415C7.55806 14.4141 7.55815 14.413 7.55859 14.4121C7.55905 14.4112 7.56009 14.4101 7.56055 14.4092L7.56152 14.4062L7.5625 14.4043L7.56445 14.4014L7.56543 14.3984C7.56589 14.3975 7.56692 14.3964 7.56738 14.3955L7.56933 14.3896L7.57129 14.3877L7.57226 14.3848C7.57272 14.3839 7.57376 14.3828 7.57422 14.3818L7.57617 14.376L7.57812 14.374L7.5791 14.3711C7.57956 14.3702 7.5806 14.3691 7.58105 14.3682L7.58301 14.3623L7.58496 14.3604L7.58594 14.3574C7.58639 14.3565 7.58743 14.3554 7.58789 14.3545L7.58984 14.3486C7.59029 14.3477 7.59135 14.3466 7.5918 14.3457L7.59277 14.3438C7.59323 14.3428 7.59427 14.3417 7.59473 14.3408C7.59518 14.3399 7.59525 14.3388 7.5957 14.3379C7.59616 14.337 7.5972 14.3359 7.59766 14.335L7.59863 14.332L7.59961 14.3301C7.60006 14.3292 7.60111 14.328 7.60156 14.3271C7.60201 14.3263 7.60209 14.3251 7.60254 14.3242C7.603 14.3233 7.60403 14.3222 7.60449 14.3213L7.60547 14.3184L7.60644 14.3164L7.6084 14.3135L7.60937 14.3105C7.60983 14.3096 7.61087 14.3085 7.61133 14.3076L7.61328 14.3018L7.61523 14.2998L7.61621 14.2969C7.61667 14.296 7.61771 14.2949 7.61816 14.2939L7.62012 14.2881L7.62207 14.2861L7.62305 14.2832C7.6235 14.2823 7.62454 14.2812 7.625 14.2803L7.62695 14.2744L7.62891 14.2725L7.62988 14.2695C7.63034 14.2686 7.63138 14.2675 7.63183 14.2666L7.63379 14.2607C7.63424 14.2598 7.63529 14.2587 7.63574 14.2578L7.63672 14.2559C7.63718 14.2549 7.63821 14.2538 7.63867 14.2529C7.63913 14.252 7.63919 14.2509 7.63965 14.25C7.64011 14.2491 7.64114 14.248 7.6416 14.2471L7.64258 14.2441L7.64355 14.2422C7.644 14.2413 7.64506 14.2402 7.64551 14.2393C7.64595 14.2384 7.64604 14.2372 7.64648 14.2363C7.64694 14.2354 7.64798 14.2343 7.64844 14.2334L7.64941 14.2305L7.65039 14.2285L7.65234 14.2256L7.65332 14.2227C7.65378 14.2217 7.65481 14.2206 7.65527 14.2197L7.65723 14.2139L7.65918 14.2119L7.66016 14.209C7.66061 14.2081 7.66165 14.207 7.66211 14.2061L7.66406 14.2002L7.66601 14.1982L7.66699 14.1953C7.66745 14.1944 7.66849 14.1933 7.66894 14.1924L7.6709 14.1865L7.67285 14.1846L7.67383 14.1816C7.67428 14.1807 7.67532 14.1796 7.67578 14.1787L7.67773 14.1729C7.67818 14.172 7.67924 14.1708 7.67969 14.1699L7.68066 14.168C7.68112 14.1671 7.68216 14.166 7.68262 14.165C7.68307 14.1641 7.68314 14.163 7.68359 14.1621C7.68405 14.1612 7.68509 14.1601 7.68555 14.1592L7.68652 14.1562L7.6875 14.1543C7.68795 14.1534 7.689 14.1523 7.68945 14.1514C7.6899 14.1505 7.68998 14.1493 7.69043 14.1484C7.69089 14.1475 7.69192 14.1464 7.69238 14.1455L7.69336 14.1426L7.69433 14.1406L7.69629 14.1377L7.69726 14.1348C7.69772 14.1339 7.69876 14.1328 7.69922 14.1318L7.70117 14.126L7.70312 14.124L7.7041 14.1211C7.70456 14.1202 7.7056 14.1191 7.70605 14.1182L7.70801 14.1123L7.70996 14.1104L7.71094 14.1074C7.71139 14.1065 7.71243 14.1054 7.71289 14.1045L7.71484 14.0986L7.7168 14.0967L7.71777 14.0938C7.71823 14.0928 7.71927 14.0917 7.71973 14.0908L7.72168 14.085C7.72213 14.0841 7.72318 14.0829 7.72363 14.082L7.72461 14.0801C7.72507 14.0792 7.7261 14.0781 7.72656 14.0771C7.72702 14.0762 7.72708 14.0751 7.72754 14.0742C7.728 14.0733 7.72903 14.0722 7.72949 14.0713L7.73047 14.0684L7.73144 14.0664C7.73189 14.0655 7.73295 14.0644 7.7334 14.0635C7.73385 14.0626 7.73393 14.0614 7.73437 14.0605C7.73483 14.0596 7.73587 14.0585 7.73633 14.0576L7.7373 14.0547L7.73828 14.0527L7.74023 14.0498L7.74121 14.0469C7.74167 14.046 7.74271 14.0449 7.74316 14.0439L7.74512 14.0381L7.74707 14.0361L7.74805 14.0332C7.7485 14.0323 7.74954 14.0312 7.75 14.0303L7.75195 14.0244L7.75391 14.0225L7.75488 14.0195C7.75534 14.0186 7.75638 14.0175 7.75683 14.0166L7.75879 14.0107L7.76074 14.0088L7.76172 14.0059C7.76218 14.0049 7.76321 14.0038 7.76367 14.0029L7.76562 13.9971C7.76607 13.9962 7.76713 13.995 7.76758 13.9941L7.76855 13.9922C7.76901 13.9913 7.77005 13.9902 7.77051 13.9893C7.77096 13.9883 7.77103 13.9872 7.77148 13.9863C7.77194 13.9854 7.77298 13.9843 7.77344 13.9834L7.77441 13.9805L7.77539 13.9785C7.77584 13.9776 7.77689 13.9765 7.77734 13.9756C7.77779 13.9747 7.77787 13.9736 7.77832 13.9727C7.77878 13.9717 7.77981 13.9706 7.78027 13.9697L7.78125 13.9668L7.78223 13.9648L7.78418 13.9619L7.78516 13.959C7.78561 13.9581 7.78665 13.957 7.78711 13.9561L7.78906 13.9502L7.79101 13.9482L7.79199 13.9453C7.79245 13.9444 7.79349 13.9433 7.79394 13.9424L7.7959 13.9365L7.79785 13.9346L7.79883 13.9316C7.79928 13.9307 7.80032 13.9296 7.80078 13.9287L7.80273 13.9229L7.80469 13.9209L7.80566 13.918C7.80612 13.9171 7.80716 13.916 7.80762 13.915L7.80957 13.9092C7.81002 13.9083 7.81107 13.9071 7.81152 13.9062L7.8125 13.9043C7.81296 13.9034 7.81399 13.9023 7.81445 13.9014C7.81491 13.9005 7.81497 13.8993 7.81543 13.8984C7.81589 13.8975 7.81692 13.8964 7.81738 13.8955L7.81836 13.8926L7.81933 13.8906C7.81978 13.8897 7.82084 13.8886 7.82129 13.8877C7.82174 13.8868 7.82182 13.8857 7.82226 13.8848C7.82272 13.8839 7.82376 13.8828 7.82422 13.8818L7.82519 13.8789L7.82617 13.877L7.82812 13.874L7.8291 13.8711C7.82956 13.8702 7.8306 13.8691 7.83105 13.8682L7.83301 13.8623L7.83496 13.8604L7.83594 13.8574C7.83639 13.8565 7.83743 13.8554 7.83789 13.8545L7.83984 13.8486L7.8418 13.8467L7.84277 13.8438C7.84323 13.8428 7.84427 13.8417 7.84473 13.8408L7.84668 13.835L7.84863 13.833L7.84961 13.8301C7.85007 13.8292 7.8511 13.8281 7.85156 13.8271L7.85351 13.8213C7.85396 13.8204 7.85502 13.8193 7.85547 13.8184L7.85644 13.8164C7.8569 13.8155 7.85794 13.8144 7.8584 13.8135C7.85885 13.8126 7.85892 13.8115 7.85937 13.8105C7.85983 13.8096 7.86087 13.8085 7.86133 13.8076L7.8623 13.8047L7.86328 13.8027C7.86373 13.8018 7.86478 13.8007 7.86523 13.7998C7.86568 13.7989 7.86576 13.7978 7.86621 13.7969C7.86667 13.796 7.86771 13.7949 7.86816 13.7939L7.86914 13.791L7.87012 13.7891L7.87207 13.7861L7.87305 13.7832C7.8735 13.7823 7.87454 13.7812 7.875 13.7803L7.87695 13.7744L7.87891 13.7725L7.87988 13.7695C7.88034 13.7686 7.88138 13.7675 7.88183 13.7666L7.88379 13.7607L7.88574 13.7588L7.88672 13.7559C7.88718 13.7549 7.88821 13.7538 7.88867 13.7529L7.89062 13.7471L7.89258 13.7451L7.89355 13.7422C7.89401 13.7413 7.89505 13.7402 7.89551 13.7393L7.89746 13.7334C7.89791 13.7325 7.89896 13.7314 7.89941 13.7305L7.90039 13.7285C7.90085 13.7276 7.90189 13.7265 7.90234 13.7256C7.9028 13.7247 7.90286 13.7236 7.90332 13.7227C7.90378 13.7217 7.90481 13.7206 7.90527 13.7197L7.90625 13.7168L7.90723 13.7148C7.90768 13.7139 7.90873 13.7128 7.90918 13.7119C7.90963 13.711 7.90971 13.7099 7.91016 13.709C7.91061 13.7081 7.91165 13.707 7.91211 13.7061L7.91308 13.7031L7.91406 13.7012L7.91601 13.6982L7.91699 13.6953C7.91745 13.6944 7.91849 13.6933 7.91894 13.6924L7.9209 13.6865L7.92285 13.6846L7.92383 13.6816C7.92428 13.6807 7.92532 13.6796 7.92578 13.6787L7.92773 13.6729L7.92969 13.6709L7.93066 13.668C7.93112 13.6671 7.93216 13.666 7.93262 13.665L7.93457 13.6592L7.93652 13.6572L7.9375 13.6543C7.93796 13.6534 7.93899 13.6523 7.93945 13.6514L7.94141 13.6455C7.94185 13.6446 7.94291 13.6435 7.94336 13.6426L7.94433 13.6406C7.94479 13.6397 7.94583 13.6386 7.94629 13.6377C7.94674 13.6368 7.94681 13.6357 7.94726 13.6348C7.94772 13.6339 7.94876 13.6328 7.94922 13.6318L7.95019 13.6289L7.95117 13.627C7.95162 13.6261 7.95267 13.6249 7.95312 13.624C7.95357 13.6231 7.95365 13.622 7.9541 13.6211C7.95456 13.6202 7.9556 13.6191 7.95605 13.6182L7.95703 13.6152L7.95801 13.6133L7.95996 13.6104L7.96094 13.6074C7.96139 13.6065 7.96243 13.6054 7.96289 13.6045L7.96484 13.5986L7.9668 13.5967L7.96777 13.5938C7.96823 13.5928 7.96927 13.5917 7.96973 13.5908L7.97168 13.585L7.97363 13.583L7.97461 13.5801C7.97507 13.5792 7.9761 13.5781 7.97656 13.5771L7.97851 13.5713L7.98047 13.5693L7.98144 13.5664C7.9819 13.5655 7.98294 13.5644 7.9834 13.5635L7.98535 13.5576C7.9858 13.5567 7.98685 13.5556 7.9873 13.5547L7.98828 13.5527C7.98874 13.5518 7.98978 13.5507 7.99023 13.5498C7.99069 13.5489 7.99075 13.5478 7.99121 13.5469C7.99167 13.546 7.99271 13.5449 7.99316 13.5439L7.99414 13.541L7.99512 13.5391C7.99557 13.5382 7.99662 13.537 7.99707 13.5361C7.99752 13.5352 7.9976 13.5341 7.99805 13.5332C7.9985 13.5323 7.99954 13.5312 8 13.5303L8.00098 13.5273L8.00195 13.5254L8.00391 13.5225L8.00488 13.5195C8.00534 13.5186 8.00638 13.5175 8.00683 13.5166L8.00879 13.5107L8.01074 13.5088L8.01172 13.5059C8.01218 13.5049 8.01321 13.5038 8.01367 13.5029L8.01562 13.4971L8.01758 13.4951L8.01855 13.4922C8.01901 13.4913 8.02005 13.4902 8.02051 13.4893L8.02246 13.4834L8.02441 13.4814L8.02539 13.4785C8.02585 13.4776 8.02689 13.4765 8.02734 13.4756L8.0293 13.4697C8.02975 13.4688 8.0308 13.4677 8.03125 13.4668L8.03223 13.4648C8.03268 13.4639 8.03372 13.4628 8.03418 13.4619C8.03463 13.461 8.0347 13.4599 8.03516 13.459L8.04004 13.4502L8.2168 13.0967C8.30729 12.9062 8.39257 12.7058 8.47656 12.4971C8.17427 12.1397 7.92556 11.7563 7.74219 11.3438L7.72949 11.3135L7.71777 11.2832C7.51944 10.7449 7.36262 10.2034 7.24805 9.65918C7.13695 9.13145 7.05377 8.60261 6.99805 8.07324L6.99707 8.06836C6.95159 7.61361 6.86026 7.15529 6.72168 6.69336L6.58691 6.24316L6.84766 5.85156C7.223 5.28854 7.68517 4.81878 8.23535 4.45605C8.69033 4.13489 9.18034 3.87365 9.70215 3.6709L9.92773 3.58691C10.524 3.36182 11.155 3.1946 11.8184 3.08203C12.4294 2.95469 13.0787 2.8139 13.7666 2.66113C14.6991 2.37087 15.5662 2.12837 16.3672 1.93555L17.1611 1.75586C18.1614 1.5197 19.139 1.33468 20.0937 1.20117L20.8203 1.08594C21.5479 0.977054 22.2963 0.882893 23.0654 0.803711C24.049 0.677507 25.1881 0.500674 26.4844 0.272461V0.25H26.6172L27.3789 0.115234L27.4238 0.25ZM28.1484 1.09375C28.1745 1.22396 28.1615 1.3151 28.1094 1.36719C28.0573 1.39323 27.9922 1.39323 27.9141 1.36719C27.862 1.34115 27.7839 1.3151 27.6797 1.28906C27.6016 1.26302 27.5365 1.25 27.4844 1.25V1.44531C27.5104 1.4974 27.5234 1.5625 27.5234 1.64062C27.3151 1.64062 27.1719 1.54948 27.0938 1.36719H26.8203C26.7682 1.36719 26.7292 1.32812 26.7031 1.25C25.375 1.48438 24.2031 1.66667 23.1875 1.79688C22.1719 1.90104 21.1953 2.03125 20.2578 2.1875C19.3203 2.31771 18.3568 2.5 17.3672 2.73438C16.3776 2.94271 15.2578 3.24219 14.0078 3.63281C13.3047 3.78906 12.6406 3.93229 12.0156 4.0625C11.3906 4.16667 10.8047 4.32292 10.2578 4.53125C9.73698 4.71354 9.25521 4.96094 8.8125 5.27344C8.36979 5.5599 7.99219 5.9375 7.67969 6.40625C7.83594 6.92708 7.9401 7.44792 7.99219 7.96875C8.04427 8.46354 8.12239 8.95833 8.22656 9.45312C8.33073 9.94792 8.47396 10.4427 8.65625 10.9375C8.86458 11.4062 9.1901 11.849 9.63281 12.2656C9.47656 12.7148 9.30566 13.1348 9.12012 13.5254L8.22656 15.3125C7.99219 15.7812 7.77083 16.263 7.5625 16.7578C7.35417 17.2526 7.15885 17.7865 6.97656 18.3594C6.76823 18.3073 6.63802 18.3594 6.58594 18.5156C6.55989 18.6458 6.46875 18.724 6.3125 18.75C6.36458 18.9583 6.35156 19.1667 6.27344 19.375C6.22135 19.5833 6.13021 19.7917 6 20C5.89583 20.1823 5.77864 20.3776 5.64844 20.5859C5.54427 20.7943 5.46614 21.0156 5.41406 21.25C5.33594 21.6927 5.30989 22.1875 5.33594 22.7344C5.38802 23.2552 5.45312 23.7891 5.53125 24.3359C5.63542 24.8568 5.72656 25.3776 5.80469 25.8984C5.90885 26.3932 5.98698 26.8359 6.03906 27.2266C6.3776 27.4089 6.58594 27.6432 6.66406 27.9297C6.76823 28.2161 6.92448 28.4635 7.13281 28.6719C7.75781 29.2708 8.53906 29.6875 9.47656 29.9219C10.4141 30.1562 11.3906 30.2865 12.4062 30.3125C13.4219 30.3385 14.4245 30.2865 15.4141 30.1562C16.4297 30.026 17.3021 29.8958 18.0312 29.7656C18.2396 29.7656 18.4349 29.8047 18.6172 29.8828C18.8255 29.9349 19.0729 29.9349 19.3594 29.8828C20.5312 29.6745 21.5859 29.5052 22.5234 29.375C23.487 29.2188 24.3464 28.9974 25.1016 28.7109C25.8828 28.3984 26.5729 27.9688 27.1719 27.4219C27.7969 26.875 28.3568 26.0938 28.8516 25.0781C28.6432 25.1042 28.5 25.0781 28.4219 25C28.3438 24.8958 28.2786 24.7656 28.2266 24.6094C28.2005 24.4531 28.1615 24.2839 28.1094 24.1016C28.0833 23.9193 28.0052 23.763 27.875 23.6328C27.5885 23.6849 27.3542 23.6328 27.1719 23.4766C26.9896 23.3203 26.8073 23.138 26.625 22.9297C26.4688 22.6953 26.2995 22.474 26.1172 22.2656C25.9349 22.0312 25.7135 21.875 25.4531 21.7969C24.724 22.0312 23.9297 22.2135 23.0703 22.3438C22.237 22.4479 21.4948 22.6562 20.8438 22.9688C19.8802 22.9427 19.0599 22.9688 18.3828 23.0469C17.7318 23.125 17.0937 23.2031 16.4687 23.2812C15.8437 23.3594 15.1797 23.4115 14.4766 23.4375C13.7734 23.4635 12.888 23.3984 11.8203 23.2422C12.1328 22.4089 12.4974 21.6276 12.9141 20.8984C13.3307 20.1432 13.7734 19.4271 14.2422 18.75C14.6068 18.8802 15.0234 18.9453 15.4922 18.9453C15.987 18.9453 16.4167 19.0104 16.7812 19.1406C17.0677 19.0104 17.4193 18.9714 17.8359 19.0234C18.2786 19.0495 18.6302 18.9974 18.8906 18.8672C19.0208 18.9714 19.125 19.0234 19.2031 19.0234H19.5547C20.2839 19.0495 20.9609 18.9714 21.5859 18.7891C22.2109 18.6068 22.7839 18.3724 23.3047 18.0859C23.8516 17.7995 24.3724 17.487 24.8672 17.1484C25.362 16.7839 25.8698 16.4323 26.3906 16.0938C26.5208 15.7812 26.5599 15.4818 26.5078 15.1953C26.4557 14.9089 26.3646 14.6354 26.2344 14.375C25.9219 14.401 25.6484 14.349 25.4141 14.2188C25.1797 14.0625 24.9453 13.8802 24.7109 13.6719L24.0859 12.9688C23.8776 12.7344 23.6562 12.5391 23.4219 12.3828C23.4219 12.2526 23.4479 12.1615 23.5 12.1094C23.5521 12.0573 23.5651 11.9661 23.5391 11.8359C22.263 11.888 20.9609 11.9792 19.6328 12.1094C18.3047 12.2135 17.0937 12.2135 16 12.1094C15.9219 11.901 15.8828 11.6536 15.8828 11.3672C15.9089 11.0807 15.8568 10.7943 15.7266 10.5078C16.013 10.4297 16.2865 10.3516 16.5469 10.2734C16.8333 10.1953 17.0807 10.0651 17.2891 9.88281C17.6016 9.9349 17.862 9.9349 18.0703 9.88281C18.3047 9.83073 18.513 9.77865 18.6953 9.72656C18.8776 9.67448 19.0469 9.64844 19.2031 9.64844C19.3854 9.6224 19.5807 9.64844 19.7891 9.72656C20.4661 9.3099 21.1562 8.9974 21.8594 8.78906C22.5625 8.58073 23.2526 8.42448 23.9297 8.32031C24.6328 8.1901 25.3099 8.07292 25.9609 7.96875C26.638 7.86458 27.276 7.70833 27.875 7.5C28.474 7.29167 29.0339 6.99219 29.5547 6.60156C30.1016 6.21094 30.5833 5.66406 31 4.96094C30.9479 4.7526 30.9219 4.59635 30.9219 4.49219C30.9219 4.36198 30.9349 4.25781 30.9609 4.17969C30.987 4.07552 31 3.97135 31 3.86719C31.026 3.76302 31.026 3.59375 31 3.35938C30.401 3.09896 29.8542 2.79948 29.3594 2.46094C28.8646 2.09635 28.4609 1.64062 28.1484 1.09375ZM22.793 11.4023C22.7662 11.4291 22.743 11.4569 22.7217 11.4844C22.7444 11.4572 22.7667 11.4286 22.793 11.4023ZM27.5234 1.15625L27.7314 1.07812L27.749 1.00684L27.6387 0.896484L27.6514 0.933594C27.6479 0.923342 27.64 0.909011 27.6318 0.889648L27.5234 0.78125V1.15625ZM27.752 1.07031L27.7959 1.05371L27.7676 1.02539L27.752 1.07031ZM27.9795 0.388672L27.8838 0.673828L28.0127 0.973633C27.9905 0.921766 27.9405 0.842225 27.8516 0.770508L27.8359 0.820312L27.9277 1.00488L28.0498 0.958984L28.2305 0.418945C28.1918 0.406053 28.1004 0.382475 27.9795 0.388672ZM27.8096 0.767578L27.8154 0.742188C27.8092 0.737888 27.8034 0.732696 27.7969 0.728516C27.7938 0.726581 27.7901 0.725485 27.7871 0.723633L27.8096 0.767578ZM27.9023 0.396484C27.8627 0.402558 27.8208 0.411604 27.7773 0.425781L27.8516 0.598633L27.9023 0.396484Z" fill="black"/>
</g>
<defs>
<filter id="filter0_d_4_30" x="0.326103" y="0.115234" width="35.7442" height="39.204" filterUnits="userSpaceOnUse" color-interpolation-filters="sRGB">
<feFlood flood-opacity="0" result="BackgroundImageFix"/>
<feColorMatrix in="SourceAlpha" type="matrix" values="0 0 0 0 0 0 0 0 0 0 0 0 0 0 0 0 0 0 127 0" result="hardAlpha"/>
<feOffset dy="4"/>
<feGaussianBlur stdDeviation="2"/>
<feComposite in2="hardAlpha" operator="out"/>
<feColorMatrix type="matrix" values="0 0 0 0 0 0 0 0 0 0 0 0 0 0 0 0 0 0 0.25 0"/>
<feBlend mode="normal" in2="BackgroundImageFix" result="effect1_dropShadow_4_30"/>
<feBlend mode="normal" in="SourceGraphic" in2="effect1_dropShadow_4_30" result="shape"/>
</filter>
</defs>
</svg>
