<svg width="50" height="41" viewBox="0 0 50 41" fill="none" xmlns="http://www.w3.org/2000/svg">
<g id="Stroke" filter="url(#filter0_d_4_31)">
<path d="M23.4766 10.2969C23.4766 10.1406 23.4115 9.97135 23.2812 9.78906L23.2422 9.35938C23.5807 8.52604 23.5807 7.75781 23.2422 7.05469C22.9036 6.35156 22.474 5.6224 21.9531 4.86719C21.849 4.73698 21.7448 4.59375 21.6406 4.4375C21.5625 4.28125 21.4714 4.125 21.3672 3.96875C21.0807 3.94271 20.8073 3.89062 20.5469 3.8125C20.3125 3.70833 20.026 3.61719 19.6875 3.53906C19.6094 3.53906 19.5052 3.51302 19.375 3.46094C19.2708 3.38281 19.1927 3.2526 19.1406 3.07031L19.0234 2.52344C18.8411 2.3151 18.6328 2.14583 18.3984 2.01562C18.1641 1.85938 17.8906 1.71615 17.5781 1.58594C17.0573 1.76823 16.6146 1.98958 16.25 2.25C15.8854 2.48438 15.5469 2.77083 15.2344 3.10938C14.9479 3.42188 14.6745 3.78646 14.4141 4.20312C14.1797 4.59375 13.9193 5.02344 13.6328 5.49219C13.4505 5.77865 13.2552 6.09115 13.0469 6.42969C12.8646 6.76823 12.6562 7.11979 12.4219 7.48438C12.0833 7.97917 11.6797 8.68229 11.2109 9.59375C10.7682 10.4792 10.2995 11.4688 9.80469 12.5625C9.3099 13.6562 8.8151 14.776 8.32031 15.9219C7.82552 17.0417 7.38281 18.0703 6.99219 19.0078C6.60156 19.9193 6.27604 20.6745 6.01562 21.2734C5.78125 21.8724 5.66406 22.1849 5.66406 22.2109C5.3776 22.888 5.22135 23.6693 5.19531 24.5547C5.19531 25.4141 5.27344 26.2865 5.42969 27.1719C5.61198 28.0312 5.85938 28.8516 6.17188 29.6328C6.51042 30.388 6.88802 30.987 7.30469 31.4297C7.85156 31.5078 8.25521 31.5469 8.51562 31.5469C8.77604 31.5469 8.9974 31.5078 9.17969 31.4297C9.38802 31.3776 9.58333 31.2604 9.76562 31.0781C9.94792 30.8958 10.1302 30.6354 10.3125 30.2969C10.5208 29.9323 10.7552 29.4766 11.0156 28.9297C11.0938 28.8255 11.1328 28.6302 11.1328 28.3438C11.1589 28.2135 11.1849 28.0703 11.2109 27.9141C11.237 27.7318 11.276 27.5625 11.3281 27.4062C11.4323 27.224 11.5495 27.0677 11.6797 26.9375C11.8099 26.7812 11.9401 26.638 12.0703 26.5078C12.1745 26.4297 12.2656 26.3516 12.3438 26.2734C12.4219 26.1953 12.474 26.0651 12.5 25.8828C12.4479 25.7526 12.4089 25.6354 12.3828 25.5312C12.3568 25.401 12.3698 25.2708 12.4219 25.1406C12.5521 24.6719 12.7604 24.2552 13.0469 23.8906C13.3594 23.526 13.6719 23.2005 13.9844 22.9141C13.9323 22.5234 13.9714 22.0677 14.1016 21.5469C14.2578 21.026 14.4271 20.5182 14.6094 20.0234C14.8177 19.5286 15.013 19.099 15.1953 18.7344C15.4036 18.3438 15.5469 18.0833 15.625 17.9531L16.0156 17.3281L16.3672 18.0312C17.6953 20.6875 19.6615 22.0156 22.2656 22.0156C23.2812 22.0156 24.3229 21.8464 25.3906 21.5078C26.4844 21.1432 27.5521 20.7005 28.5938 20.1797C29.6354 19.6328 30.638 19.0469 31.6016 18.4219C32.5911 17.7708 33.5026 17.1458 34.3359 16.5469C34.388 16.3385 34.4661 16.2214 34.5703 16.1953C34.6745 16.1693 34.7917 16.1562 34.9219 16.1562L35.3125 16.1953V16.625C35.3385 16.8854 35.2604 17.0807 35.0781 17.2109C34.0885 20.6745 33.6068 23.526 33.6328 25.7656C33.6849 28.0052 34.3359 29.5807 35.5859 30.4922C35.8984 30.4922 36.1979 30.4401 36.4844 30.3359C36.7708 30.2057 37.0573 30.0495 37.3438 29.8672C37.5521 29.737 37.7734 29.6198 38.0078 29.5156C38.2422 29.4115 38.5026 29.3203 38.7891 29.2422C38.8411 29.0859 38.9062 28.9297 38.9844 28.7734C39.0625 28.6172 39.1406 28.4479 39.2188 28.2656C39.8698 26.8333 40.4688 25.2969 41.0156 23.6562C41.5885 22.0156 41.8229 20.2057 41.7188 18.2266C41.901 17.8359 42.0443 17.4714 42.1484 17.1328C42.2786 16.7682 42.3698 16.3906 42.4219 16C42.474 15.6094 42.5 15.1927 42.5 14.75C42.5 14.2812 42.474 13.6562 42.4219 12.875C42.6042 12.5625 42.7604 12.1328 42.8906 11.5859C43.0469 11.0391 43.0859 10.5443 43.0078 10.1016L42.8906 9.24219L43.75 9.32031C43.6979 9.1901 43.6589 9.08594 43.6328 9.00781C43.6068 8.90365 43.5677 8.79948 43.5156 8.69531C43.4115 8.4349 43.3203 8.17448 43.2422 7.91406C43.1641 7.6276 43.151 7.34115 43.2031 7.05469C42.6562 6.66406 42.2656 6.11719 42.0312 5.41406C41.9531 5.23177 41.8359 5.08854 41.6797 4.98438C41.5495 4.88021 41.3802 4.76302 41.1719 4.63281L41.0156 4.55469C40.9635 4.52865 40.8724 4.46354 40.7422 4.35938C40.5078 4.125 40.3906 3.86458 40.3906 3.57812C40.3125 3.52604 40.2344 3.48698 40.1562 3.46094C40.1042 3.4349 40.0391 3.39583 39.9609 3.34375C39.6875 3.20703 39.4141 3.08496 39.1406 2.97754L38.5938 2.77246C38.3203 2.68457 38.0469 2.64062 37.7734 2.64062C37.4089 2.64062 37.0833 2.73177 36.7969 2.91406C36.276 4.21615 35.5729 5.3099 34.6875 6.19531C33.8021 7.05469 32.8906 7.86198 31.9531 8.61719C31.4583 9.03385 30.9766 9.45052 30.5078 9.86719C30.0651 10.2578 29.5703 10.7135 29.0234 11.2344C28.7891 11.2865 28.5417 11.3776 28.2812 11.5078C28.0469 11.638 27.7865 11.8073 27.5 12.0156C27.1354 12.25 26.7448 12.4844 26.3281 12.7188C25.9115 12.9531 25.4427 13.0703 24.9219 13.0703V12.0703C25.2867 12.0703 25.5841 11.9904 25.8379 11.8477C26.239 11.622 26.6126 11.3975 26.959 11.1748C27.2517 10.964 27.5308 10.7811 27.7959 10.6338L27.8145 10.623L27.834 10.6133C28.0593 10.5006 28.2878 10.4064 28.5186 10.335C29.0001 9.87947 29.4424 9.47305 29.8457 9.11719C30.3204 8.69527 30.8082 8.27392 31.3086 7.85254L31.3262 7.83887C32.2385 7.10396 33.126 6.3173 33.9893 5.47949C34.764 4.70223 35.3934 3.72977 35.8682 2.54297L35.9883 2.24316L36.2598 2.07031C36.7186 1.77833 37.2333 1.64062 37.7734 1.64062C38.2734 1.64062 38.7604 1.74634 39.2285 1.94238C39.5233 2.04853 39.8167 2.16924 40.1084 2.30469L40.4082 2.44922L40.4639 2.47754L40.5156 2.51172C40.5415 2.52896 40.5625 2.54125 40.5781 2.55078C40.7104 2.604 40.8327 2.67104 40.9453 2.74609L41.3906 3.04297V3.57812C41.3922 3.58151 41.4019 3.59665 41.4268 3.625C41.4535 3.64564 41.4738 3.66178 41.4893 3.67285L41.4912 3.67383L41.541 3.69922L41.542 3.7002H41.543L41.5439 3.70117H41.5459V3.70215H41.5479V3.70312H41.5498V3.7041H41.5518V3.70508H41.5527L41.5537 3.70605H41.5557V3.70703H41.5576V3.70801H41.5596V3.70898H41.5615V3.70996H41.5625L41.5635 3.71094H41.5654V3.71191H41.5674V3.71289H41.5693V3.71387H41.5713V3.71484H41.5723L41.5732 3.71582H41.5752V3.7168H41.5771V3.71777H41.5791V3.71875H41.5811V3.71973H41.582L41.583 3.7207H41.585V3.72168H41.5869V3.72266H41.5889V3.72363H41.5908V3.72461H41.5918L41.5928 3.72559H41.5947V3.72656H41.5967V3.72754H41.5986V3.72852H41.6006V3.72949H41.6016L41.6025 3.73047H41.6045V3.73145H41.6064V3.73242H41.6084V3.7334H41.6104V3.73438H41.6113L41.6123 3.73535H41.6143V3.73633H41.6162V3.7373H41.6182V3.73828H41.6191L41.6611 3.75977L41.7021 3.78516C41.9294 3.92718 42.1338 4.06644 42.3047 4.20312H42.3037C42.5555 4.38736 42.7515 4.62136 42.8896 4.8916L42.9502 5.02051L42.9668 5.05859L42.9795 5.09766C43.1543 5.62195 43.427 5.98607 43.7842 6.24121L44.3008 6.60938L44.1865 7.2334C44.1623 7.36672 44.167 7.49918 44.2041 7.64062C44.2725 7.86715 44.3527 8.09518 44.4443 8.32422H44.4434C44.4987 8.44389 44.5468 8.56705 44.583 8.69531C44.6003 8.74674 44.6308 8.8295 44.6787 8.94922L45.2842 10.4639L44.04 10.3506C44.0674 10.8449 43.9979 11.3515 43.8525 11.8604L43.8516 11.8594C43.7416 12.3125 43.6068 12.7293 43.4355 13.0908C43.4765 13.7553 43.5 14.3102 43.5 14.75C43.5 15.2315 43.4716 15.6925 43.4131 16.1318C43.3539 16.5757 43.2497 17.0072 43.1035 17.4258L43.1045 17.4268C43.006 17.7469 42.8786 18.0784 42.7275 18.4209C42.8062 20.4179 42.5568 22.2772 41.96 23.9863L41.959 23.9854C41.4033 25.651 40.794 27.2165 40.1289 28.6797C40.0469 28.8702 39.9639 29.0508 39.8789 29.2207C39.8207 29.3372 39.7736 29.4498 39.7373 29.5586L39.5684 30.0664L39.0518 30.207C38.8069 30.2738 38.5955 30.3491 38.4141 30.4297C38.2232 30.5145 38.0449 30.6073 37.8799 30.71C37.5572 30.9153 37.2305 31.0952 36.8984 31.2461L36.8623 31.2627L36.8262 31.2754C36.4274 31.4204 36.012 31.4922 35.5859 31.4922H35.2598L34.9971 31.2998C33.3973 30.1333 32.6888 28.1937 32.6328 25.7891V25.7773C32.6084 23.6817 33.0011 21.1352 33.7812 18.1582C33.2625 18.5161 32.7196 18.883 32.1514 19.2568L32.1455 19.2607C31.1557 19.9028 30.1267 20.5047 29.0586 21.0654L29.0498 21.0693L29.041 21.0742C27.9575 21.616 26.846 22.0764 25.707 22.4561L25.7002 22.459L25.6924 22.4609C24.537 22.8272 23.3936 23.0156 22.2656 23.0156C20.7845 23.0156 19.4427 22.6351 18.2783 21.8486C17.3789 21.241 16.6192 20.4136 15.9863 19.3975C15.8482 19.6854 15.6979 20.0146 15.54 20.3887C15.3703 20.8506 15.2121 21.3252 15.0654 21.8125C14.9606 22.2406 14.9456 22.5571 14.9756 22.7822L15.0449 23.2988L14.6602 23.6514C14.3881 23.9008 14.1101 24.1875 13.8281 24.5146C13.632 24.7659 13.4846 25.0566 13.3887 25.3965C13.4001 25.4297 13.4116 25.4689 13.4287 25.5117L13.5273 25.7598L13.4902 26.0244C13.4521 26.2909 13.3541 26.6772 13.0508 26.9805C12.9579 27.0734 12.8562 27.159 12.751 27.2422C12.6526 27.3422 12.5517 27.454 12.4482 27.5781L12.4189 27.6123L12.3867 27.6445C12.3427 27.6885 12.2974 27.7466 12.249 27.8203C12.2305 27.8905 12.2136 27.9686 12.2012 28.0557L12.1992 28.0674L12.1289 28.4541C12.1247 28.6027 12.1134 28.7545 12.084 28.9014C12.056 29.0413 12.0026 29.2206 11.8984 29.3994C11.644 29.932 11.4082 30.39 11.1924 30.7695L11.1934 30.7705C10.9852 31.157 10.7486 31.5092 10.4727 31.7852C10.2074 32.0504 9.88546 32.2628 9.50586 32.375C9.18617 32.4996 8.84773 32.5469 8.51562 32.5469C8.1799 32.5469 7.71697 32.499 7.16309 32.4199L6.81641 32.3701L6.57617 32.1152C6.06113 31.568 5.62854 30.8646 5.25977 30.042L5.25098 30.0234L5.24316 30.0039C4.90858 29.1674 4.64479 28.2917 4.45117 27.3789L4.44531 27.3457C4.2794 26.4055 4.19531 25.4749 4.19531 24.5547V24.5254C4.22337 23.5716 4.3903 22.6908 4.71289 21.8984C4.72229 21.8673 4.73238 21.8361 4.74121 21.8105C4.76007 21.7561 4.78523 21.686 4.81543 21.6055C4.87655 21.4425 4.96646 21.2095 5.08398 20.9092L5.09082 20.8916L5.09863 20.875C5.35807 20.2783 5.68304 19.5247 6.07324 18.6143C6.46615 17.6715 6.90977 16.639 7.40527 15.5176C7.90113 14.3694 8.39743 13.2471 8.89355 12.1504C9.3926 11.0472 9.86685 10.0456 10.3164 9.14648L10.3213 9.13672C10.7927 8.22012 11.215 7.48082 11.585 6.9375C11.8053 6.59442 11.9985 6.26719 12.166 5.95605L12.1797 5.92969L12.1953 5.90527C12.4058 5.56326 12.6037 5.24634 12.7891 4.95508C13.0706 4.49428 13.3265 4.07203 13.5566 3.68848L13.5664 3.67285C13.8542 3.21245 14.1635 2.79751 14.4971 2.43359L14.5 2.43066C14.8662 2.03402 15.269 1.69205 15.709 1.40918C16.157 1.09576 16.6746 0.842299 17.248 0.641602L17.6094 0.515625L17.9629 0.663086C18.3233 0.813277 18.6557 0.985331 18.9531 1.18359H18.9521C19.1788 1.31679 19.3878 1.47322 19.5762 1.65527L19.7764 1.86523L19.9473 2.06055L20.001 2.31348L20.0625 2.60156C20.3519 2.67423 20.6222 2.76049 20.8682 2.86328C21.0027 2.90185 21.1438 2.93329 21.293 2.9541L21.458 2.97266L21.9336 3.0166L22.1992 3.41406C22.3075 3.57654 22.4042 3.74287 22.4922 3.91113C22.5307 3.96819 22.5681 4.02279 22.6055 4.07422L22.7344 4.24219L22.7559 4.27051L22.7764 4.2998C23.3215 5.09031 23.7791 5.86422 24.1436 6.62109C24.585 7.53808 24.5955 8.51336 24.2627 9.48145C24.3857 9.71515 24.4766 9.9891 24.4766 10.2969C24.4766 10.529 24.4397 10.7998 24.3896 11.084L24.3906 11.085C24.3677 11.2681 24.3447 11.4746 24.3213 11.7051C24.3237 11.7738 24.3328 11.854 24.3496 11.9473C24.5702 12.0349 24.7588 12.0703 24.9219 12.0703V13.0703C24.5312 13.0703 24.1276 12.9661 23.7109 12.7578L23.4375 12.4453C23.3594 12.1589 23.3203 11.8984 23.3203 11.6641C23.3464 11.4036 23.3724 11.1693 23.3984 10.9609C23.4505 10.6745 23.4766 10.4531 23.4766 10.2969Z" fill="black"/>
</g>
<defs>
<filter id="filter0_d_4_31" x="0.195312" y="0.515625" width="49.0889" height="40.0312" filterUnits="userSpaceOnUse" color-interpolation-filters="sRGB">
<feFlood flood-opacity="0" result="BackgroundImageFix"/>
<feColorMatrix in="SourceAlpha" type="matrix" values="0 0 0 0 0 0 0 0 0 0 0 0 0 0 0 0 0 0 127 0" result="hardAlpha"/>
<feOffset dy="4"/>
<feGaussianBlur stdDeviation="2"/>
<feComposite in2="hardAlpha" operator="out"/>
<feColorMatrix type="matrix" values="0 0 0 0 0 0 0 0 0 0 0 0 0 0 0 0 0 0 0.25 0"/>
<feBlend mode="normal" in2="BackgroundImageFix" result="effect1_dropShadow_4_31"/>
<feBlend mode="normal" in="SourceGraphic" in2="effect1_dropShadow_4_31" result="shape"/>
</filter>
</defs>
</svg>
