<svg width="43" height="41" viewBox="0 0 43 41" fill="none" xmlns="http://www.w3.org/2000/svg">
<g id="Stroke" filter="url(#filter0_d_4_26)">
<path d="M4.20312 21.7422C4.20312 21.365 4.25503 20.9957 4.37207 20.6445C4.38302 20.6114 4.40901 20.4833 4.36914 20.2041L4.36816 20.1982C4.63123 19.8964 4.84531 19.5915 5.00781 19.2812L5.39844 18.5391L5.06055 18.4072C5.73383 17.1045 6.47146 15.8771 7.27344 14.7256L7.27539 14.7227C8.37385 13.1574 9.67871 11.7829 11.1885 10.6025L11.1904 10.6016C11.3717 10.4606 11.4789 10.3455 11.5381 10.2627L11.5449 10.2529L11.5518 10.2441C11.7041 10.041 11.8427 9.85183 11.9678 9.67676L11.9932 9.64062L12.0225 9.60742C12.2224 9.37412 12.4444 9.16669 12.6895 8.98926C12.92 8.80328 13.1771 8.67131 13.4482 8.58398C14.1153 7.85189 14.8908 7.18427 15.7705 6.58105C16.7035 5.94127 17.6758 5.32929 18.6865 4.74414C19.6704 4.17452 20.6546 3.59173 21.6387 2.99609L21.6484 2.99023C22.6163 2.41941 23.4768 1.80346 24.2334 1.14453L24.7969 0.65332L25.4277 1.05469C25.4397 1.06228 25.4515 1.06798 25.4619 1.07422C25.7581 1.00247 26.0682 1.0049 26.376 1.09277L26.8115 1.21777L27.0049 1.62695C27.1726 1.98099 27.3456 2.14948 27.4834 2.23242C27.8702 2.4142 28.2569 2.60683 28.6426 2.8125C29.1012 3.02032 29.5226 3.28256 29.9062 3.60059C30.4371 3.98628 30.8159 4.51085 31.0566 5.12988L31.5869 6.49219H31.0439C31.0444 6.51038 31.0469 6.52858 31.0469 6.54688C31.0469 6.55885 31.0443 6.57085 31.0439 6.58301C31.2027 6.8328 31.2422 7.09765 31.2422 7.28906C31.2422 7.50405 31.2047 7.72917 31.1143 7.94629L31.2656 8.55078L30.6797 8.94141C30.0152 9.38442 29.2754 9.80858 28.4629 10.2148L28.4502 10.2207C27.6987 10.5835 26.895 10.9712 26.04 11.3857C25.2218 11.7949 24.3769 12.2446 23.5039 12.7324L23.4941 12.7373C22.6758 13.1837 21.8527 13.7069 21.0254 14.3086C20.1889 14.917 19.3372 15.5912 18.4697 16.3311C17.6388 17.0619 16.8316 17.8435 16.0488 18.6768L16.0439 18.6826L16.0381 18.6875C15.2568 19.494 14.5266 20.3383 13.8467 21.2197L13.8379 21.2314C13.3727 21.8173 12.9593 22.3944 12.5938 22.9609C13.2275 22.9746 13.8273 22.9658 14.3936 22.9316C15.1078 22.8685 15.8215 22.8851 16.5332 22.9824C16.682 22.8003 16.876 22.66 17.0977 22.5713L17.2275 22.5195L17.3662 22.5049C19.0899 22.3274 20.6912 22.0496 22.1719 21.6738C23.0312 21.4408 23.8989 21.2086 24.7744 20.9756C24.7601 20.9036 24.75 20.8273 24.75 20.7461C24.75 20.5794 24.7854 20.4338 24.8379 20.3066C24.6943 20.1596 24.5593 20.0027 24.4355 19.834L24.4102 19.7969C24.0451 19.2493 23.8554 18.5963 23.7861 17.8916C23.7691 17.8837 23.7533 17.8776 23.7402 17.8711L23.1299 17.5654L23.1914 16.8857C23.2259 16.5063 23.3182 16.1211 23.5146 15.7773C23.5535 15.7093 23.6004 15.5947 23.6367 15.4131L23.7178 15.0059L24.0645 14.7754L27.9023 12.2324L28.4688 12.668C28.7634 12.8946 29.1416 13.1446 29.6104 13.416C30.092 13.6949 30.6004 13.9745 31.1357 14.2549C31.6791 14.5395 32.2347 14.8369 32.8027 15.1465C33.3711 15.4308 33.9044 15.7175 34.4033 16.0049C34.929 16.2434 35.4008 16.5454 35.8096 16.916C36.1708 17.2216 36.5166 17.5538 36.8477 17.9102L36.8535 17.916L36.8555 17.917L36.8564 17.9189L36.8682 17.9307L36.8701 17.9316L36.8711 17.9336L36.8828 17.9453L36.8848 17.9463L36.8857 17.9482L36.8975 17.96L36.8994 17.9609L36.9004 17.9629L36.9121 17.9746L36.9141 17.9756L36.915 17.9775L36.9268 17.9893L36.9287 17.9902L36.9297 17.9922L36.9414 18.0039L36.9434 18.0049L36.9443 18.0068L36.9561 18.0186L36.958 18.0195L36.959 18.0215L36.9707 18.0332L36.9727 18.0342L36.9736 18.0361L36.9854 18.0479L36.9873 18.0488L36.9883 18.0508L37 18.0625L37.002 18.0635L37.0029 18.0654L37.0146 18.0771L37.0166 18.0781L37.0176 18.0801L37.0293 18.0918L37.0312 18.0928L37.0322 18.0947L37.0439 18.1064L37.0459 18.1074L37.0469 18.1094L37.0586 18.1211L37.0605 18.1221L37.0615 18.124L37.0732 18.1357L37.0752 18.1367L37.0762 18.1387L37.0879 18.1504L37.0898 18.1514L37.0908 18.1533L37.1025 18.165L37.1045 18.166L37.1055 18.168L37.1172 18.1797L37.1191 18.1807L37.1201 18.1826L37.1318 18.1943L37.1338 18.1953L37.1348 18.1973L37.1465 18.209L37.1484 18.21L37.1494 18.2119L37.1611 18.2236L37.1631 18.2246L37.1641 18.2266L37.1758 18.2383L37.1777 18.2393L37.1787 18.2412L37.1904 18.2529L37.1924 18.2539L37.1934 18.2559L37.2051 18.2676L37.207 18.2686L37.208 18.2705L37.2197 18.2822L37.2217 18.2832L37.2227 18.2852L37.2344 18.2969L37.2363 18.2979L37.2373 18.2998L37.249 18.3115L37.251 18.3125L37.252 18.3145L37.2637 18.3262L37.2656 18.3271L37.2666 18.3291L37.2783 18.3408L37.2803 18.3418L37.2812 18.3438L37.293 18.3555L37.2949 18.3564L37.2959 18.3584L37.3076 18.3701L37.3096 18.3711L37.3105 18.373L37.3223 18.3848L37.3242 18.3857L37.3252 18.3877L37.3369 18.3994L37.3389 18.4004L37.3398 18.4023L37.3516 18.4141L37.3535 18.415L37.3545 18.417L37.3662 18.4287L37.3682 18.4297L37.3691 18.4316L37.3809 18.4434L37.3828 18.4443L37.3838 18.4463L37.3955 18.458L37.3975 18.459L37.3984 18.4609L37.4102 18.4727L37.4121 18.4736L37.4131 18.4756L37.4248 18.4873L37.4268 18.4883L37.4277 18.4902L37.4395 18.502L37.4414 18.5029L37.4424 18.5049L37.4541 18.5166L37.4561 18.5176L37.457 18.5195L37.4688 18.5312L37.4707 18.5322L37.4717 18.5342L37.4834 18.5459L37.4854 18.5469L37.4863 18.5488L37.498 18.5605L37.5 18.5615L37.501 18.5635L37.5127 18.5752L37.5146 18.5762L37.5156 18.5781L37.5273 18.5898L37.5293 18.5908L37.5303 18.5928L37.542 18.6045L37.5439 18.6055L37.5449 18.6074L37.5566 18.6191L37.5586 18.6201L37.5596 18.6221L37.5713 18.6338L37.5732 18.6348L37.5742 18.6367L37.5859 18.6484L37.5879 18.6494L37.5889 18.6514L37.6006 18.6631L37.6025 18.6641L37.6035 18.666L37.6152 18.6777L37.6172 18.6787L37.6182 18.6807L37.6299 18.6924L37.6318 18.6934L37.6328 18.6953L37.6445 18.707L37.6465 18.708L37.6475 18.71L37.6592 18.7217L37.6611 18.7227L37.6621 18.7246L37.6738 18.7363L37.6758 18.7373L37.6768 18.7393L37.6885 18.751L37.6904 18.752L37.6914 18.7539L37.7031 18.7656L37.7051 18.7666L37.7061 18.7686L37.7178 18.7803L37.7197 18.7812L37.7207 18.7832L37.7324 18.7949L37.7344 18.7959L37.7354 18.7979L37.7471 18.8096L37.749 18.8105L37.75 18.8125L37.7617 18.8242L37.7637 18.8252L37.7646 18.8271L37.7764 18.8389L37.7783 18.8398L37.7793 18.8418L37.7852 18.8477C37.9823 19.0448 38.226 19.2181 38.5215 19.3701C38.4679 19.3985 38.4293 19.4465 38.4062 19.5156C38.3802 19.6458 38.2891 19.724 38.1328 19.75C38.1777 19.9297 38.1711 20.1084 38.1191 20.2881C37.7164 20.0877 37.3685 19.845 37.0781 19.5547L36.1406 18.6172C35.8281 18.2786 35.5026 17.9661 35.1641 17.6797C34.8255 17.3672 34.4219 17.1068 33.9531 16.8984C33.4583 16.612 32.9245 16.3255 32.3516 16.0391C31.7786 15.7266 31.2188 15.4271 30.6719 15.1406C30.125 14.8542 29.6042 14.5677 29.1094 14.2812C28.6146 13.9948 28.1979 13.7214 27.8594 13.4609L24.6172 15.6094C24.5651 15.8698 24.487 16.0911 24.3828 16.2734C24.2786 16.4557 24.2135 16.6901 24.1875 16.9766C24.2917 17.0286 24.3568 17.0286 24.3828 16.9766C24.4349 16.9245 24.4609 16.8724 24.4609 16.8203L24.5391 16.6641C24.5651 16.612 24.6432 16.612 24.7734 16.6641C24.9557 16.7943 25.0469 16.9635 25.0469 17.1719C25.0469 17.3802 24.9557 17.5625 24.7734 17.7188C24.8255 18.3438 24.9818 18.8516 25.2422 19.2422C25.5286 19.6328 25.8802 19.9453 26.2969 20.1797C26.1927 20.3099 26.0495 20.4401 25.8672 20.5703C25.7109 20.6745 25.7109 20.8047 25.8672 20.9609C26.2318 21.0651 26.6484 21.2083 27.1172 21.3906C25.5286 21.8073 23.9661 22.224 22.4297 22.6406C20.8932 23.0312 19.2396 23.3177 17.4688 23.5C17.3385 23.5521 17.2604 23.6432 17.2344 23.7734C17.2083 23.9036 17.1432 24.0078 17.0391 24.0859C16.1797 23.9036 15.3203 23.8516 14.4609 23.9297C13.6016 23.9818 12.6771 23.9818 11.6875 23.9297C11.6354 23.7995 11.5573 23.6823 11.4531 23.5781C11.375 23.474 11.3099 23.3568 11.2578 23.2266C11.7526 22.3672 12.3516 21.4948 13.0547 20.6094C13.7578 19.6979 14.513 18.8255 15.3203 17.9922C16.1276 17.1328 16.9609 16.3255 17.8203 15.5703C18.7057 14.8151 19.5781 14.125 20.4375 13.5C21.2969 12.875 22.1562 12.3281 23.0156 11.8594C23.901 11.3646 24.7604 10.9089 25.5938 10.4922C26.4531 10.0755 27.2604 9.6849 28.0156 9.32031C28.7969 8.92969 29.5 8.52604 30.125 8.10938C30.0729 7.90104 30.0729 7.75781 30.125 7.67969C30.2031 7.57552 30.2422 7.44531 30.2422 7.28906C30.2422 7.12967 30.1726 7.03956 30.0332 7.01953L29.9043 7.01172C29.7649 6.99169 29.6953 6.90158 29.6953 6.74219C29.9297 6.74219 30.0469 6.67708 30.0469 6.54688C30.0469 6.41667 30.0208 6.27344 29.9688 6.11719C29.9167 5.96094 29.8776 5.81771 29.8516 5.6875C29.8516 5.55729 29.9427 5.49219 30.125 5.49219C29.9427 5.02344 29.6693 4.65885 29.3047 4.39844C28.9661 4.11198 28.5885 3.8776 28.1719 3.69531C27.7812 3.48698 27.3906 3.29167 27 3.10938C26.6354 2.90104 26.3359 2.54948 26.1016 2.05469C25.9193 2.0026 25.737 2.01562 25.5547 2.09375C25.3984 2.14583 25.1771 2.08073 24.8906 1.89844C24.0833 2.60156 23.1719 3.2526 22.1562 3.85156C21.1667 4.45052 20.1771 5.03646 19.1875 5.60938C18.1979 6.18229 17.2474 6.78125 16.3359 7.40625C15.4245 8.03125 14.6432 8.72135 13.9922 9.47656C13.7057 9.52865 13.4714 9.63281 13.2891 9.78906C13.1068 9.91927 12.9375 10.0755 12.7812 10.2578C12.651 10.4401 12.5078 10.6354 12.3516 10.8438C12.2214 11.026 12.0391 11.2083 11.8047 11.3906C10.3724 12.5104 9.13542 13.8125 8.09375 15.2969C7.07812 16.7552 6.16667 18.3438 5.35938 20.0625C5.41146 20.4271 5.39844 20.7266 5.32031 20.9609C5.24219 21.1953 5.20312 21.4557 5.20312 21.7422C5.25521 21.7943 5.32031 21.8464 5.39844 21.8984L5.3291 22.1025L5.26953 22.0908L5.23438 22.1436L5.47656 22.1328C5.60677 24.8672 6.33594 27.0156 7.66406 28.5781C8.99219 30.1406 10.8281 30.974 13.1719 31.0781C13.5104 31.1042 13.875 31.0651 14.2656 30.9609C14.6562 30.8568 15.0339 30.8047 15.3984 30.8047H16.4531C16.8698 30.8047 17.3385 30.7656 17.8594 30.6875C17.9375 30.6354 17.9896 30.5703 18.0156 30.4922C18.0677 30.4141 18.1589 30.388 18.2891 30.4141C18.6276 30.388 18.9401 30.349 19.2266 30.2969L20.0859 30.1406C20.3724 30.0885 20.6719 30.0495 20.9844 30.0234C21.2969 29.9974 21.6745 29.9844 22.1172 29.9844C23.1328 29.5938 24.1615 29.2552 25.2031 28.9688C26.2708 28.6562 27.3255 28.3698 28.3672 28.1094C29.4089 27.8229 30.4245 27.5365 31.4141 27.25C32.4036 26.9375 33.3281 26.5599 34.1875 26.1172C35.0729 25.6745 35.8672 25.1536 36.5703 24.5547C36.7836 24.3651 36.9855 24.1618 37.1797 23.9482C37.2234 24.3601 37.2742 24.7801 37.334 25.208C37.3004 25.2388 37.2685 25.2715 37.2344 25.3018L37.2266 25.3096L37.2188 25.3164C36.45 25.9712 35.5871 26.5355 34.6348 27.0117L34.6338 27.0107C33.7237 27.4787 32.7503 27.8761 31.7148 28.2031L31.7041 28.207L31.6924 28.2109C30.6985 28.4986 29.6784 28.7857 28.6328 29.0732L28.6211 29.0771L28.6094 29.0791C27.5812 29.3362 26.5397 29.6199 25.4844 29.9287L25.4688 29.9326C24.4592 30.2103 23.4616 30.5391 22.4766 30.918L22.3027 30.9844H22.1172C21.6919 30.9844 21.3436 30.9965 21.0674 31.0195C20.7846 31.0431 20.5171 31.0781 20.2646 31.124L19.835 31.2021L19.832 31.2031L19.8281 31.2041H19.8252L19.8213 31.2051L19.8184 31.2061H19.8154L19.8115 31.207H19.8086L19.8047 31.208L19.8018 31.209H19.7979L19.7949 31.21L19.791 31.2109H19.7881L19.7852 31.2119H19.7812L19.7783 31.2129L19.7744 31.2139H19.7715L19.7676 31.2148L19.7646 31.2158H19.7617L19.7578 31.2168H19.7549L19.751 31.2178L19.748 31.2188H19.7441L19.7412 31.2197L19.7373 31.2207H19.7344L19.7314 31.2217H19.7275L19.7246 31.2227L19.7207 31.2236H19.7178L19.7139 31.2246L19.7109 31.2256H19.708L19.7041 31.2266H19.7012L19.6973 31.2275L19.6943 31.2285H19.6904L19.6875 31.2295L19.6836 31.2305H19.6807L19.6777 31.2314H19.6738L19.6709 31.2324L19.667 31.2334H19.6641L19.6602 31.2344L19.6572 31.2354H19.6543L19.6504 31.2363H19.6475L19.6436 31.2373L19.6406 31.2383H19.6367L19.6338 31.2393L19.6299 31.2402H19.627L19.624 31.2412H19.6201L19.6172 31.2422L19.6133 31.2432H19.6104L19.6064 31.2441L19.6035 31.2451H19.6006L19.5967 31.2461H19.5938L19.5898 31.2471L19.5869 31.248H19.583L19.5801 31.249L19.5762 31.25H19.5732L19.5703 31.251H19.5664L19.5635 31.252L19.5596 31.2529H19.5566L19.5527 31.2539L19.5498 31.2549H19.5469L19.543 31.2559H19.54L19.5361 31.2568L19.5332 31.2578H19.5293L19.5264 31.2588L19.5225 31.2598H19.5195L19.5166 31.2607H19.5127L19.5098 31.2617L19.5059 31.2627H19.5029L19.499 31.2637L19.4961 31.2646H19.4932L19.4893 31.2656H19.4863L19.4824 31.2666L19.4795 31.2676H19.4756L19.4727 31.2686L19.4688 31.2695H19.4658L19.4629 31.2705H19.459L19.4561 31.2715L19.4521 31.2725H19.4492L19.4453 31.2734L19.4424 31.2744H19.4395L19.4355 31.2754H19.4326L19.4287 31.2764L19.4258 31.2773H19.4219L19.4189 31.2783L19.415 31.2793H19.4121L19.4092 31.2803H19.4053C19.1444 31.3277 18.8692 31.3613 18.5811 31.3887C18.5276 31.4368 18.472 31.4809 18.4141 31.5195L18.2285 31.6436L18.0078 31.6768C17.45 31.7604 16.9304 31.8047 16.4531 31.8047H15.3984C15.1298 31.8047 14.8389 31.8426 14.5234 31.9268C14.0552 32.0516 13.5875 32.1073 13.1279 32.0762C13.117 32.0757 13.1056 32.0757 13.0947 32.0752C10.5322 31.9542 8.43056 31.0235 6.90234 29.2256C5.43655 27.5011 4.66444 25.2087 4.49316 22.4463L4.20312 22.1562V21.7422ZM5.3291 22.1025L5.31738 22.1396L5.23438 22.1436L5.26953 22.0908L5.3291 22.1025ZM5.39844 21.8984C5.47656 21.9245 5.5026 22.0026 5.47656 22.1328L5.31738 22.1396L5.39844 21.8984ZM30.9551 8.2334L30.957 8.23438C30.9604 8.22936 30.9626 8.22373 30.9658 8.21875C30.9624 8.22376 30.9585 8.22841 30.9551 8.2334Z" fill="black"/>
</g>
<defs>
<filter id="filter0_d_4_26" x="0.203125" y="0.65332" width="42.3184" height="39.4313" filterUnits="userSpaceOnUse" color-interpolation-filters="sRGB">
<feFlood flood-opacity="0" result="BackgroundImageFix"/>
<feColorMatrix in="SourceAlpha" type="matrix" values="0 0 0 0 0 0 0 0 0 0 0 0 0 0 0 0 0 0 127 0" result="hardAlpha"/>
<feOffset dy="4"/>
<feGaussianBlur stdDeviation="2"/>
<feComposite in2="hardAlpha" operator="out"/>
<feColorMatrix type="matrix" values="0 0 0 0 0 0 0 0 0 0 0 0 0 0 0 0 0 0 0.25 0"/>
<feBlend mode="normal" in2="BackgroundImageFix" result="effect1_dropShadow_4_26"/>
<feBlend mode="normal" in="SourceGraphic" in2="effect1_dropShadow_4_26" result="shape"/>
</filter>
</defs>
</svg>
