<svg width="41" height="41" viewBox="0 0 41 41" fill="none" xmlns="http://www.w3.org/2000/svg">
<g id="Stroke" filter="url(#filter0_d_4_27)">
<path d="M23.7256 1.54883L23.8164 1.58691C23.8839 1.61221 23.9764 1.64244 24.0986 1.67578C24.3909 1.75548 24.6935 1.84784 25.0059 1.95117C25.5715 2.08723 26.125 2.24915 26.666 2.43848C27.1984 2.6028 27.6849 2.8411 28.084 3.18262L28.2539 3.33984L28.3525 3.43848L28.6162 3.91309L28.6963 4.05664L28.7256 4.21973C28.7762 4.49792 28.816 4.75902 28.8447 5.00195C28.8702 5.11673 28.8862 5.18925 28.9141 5.31445L28.9922 5.66602L28.998 5.69531C29.1046 6.25492 29.1982 6.81505 29.2783 7.375L29.3359 7.80957C29.3848 8.22525 29.4175 8.66964 29.4385 9.1416C29.5611 9.63998 29.674 10.1485 29.7734 10.668C29.9047 11.1948 30.0234 11.7217 30.1289 12.249L30.1318 12.2627L30.1338 12.2754C30.261 13.0131 30.4008 13.724 30.5527 14.4082L30.6689 14.8711C30.7288 15.0892 30.7972 15.3032 30.8691 15.5146C31.1324 15.4516 31.4064 15.4119 31.6885 15.3936L32.9756 15.2949L33.3193 16.3291C33.6744 16.3838 34.0397 16.4999 34.3496 16.7295C34.5934 16.8836 34.8197 17.054 35.0117 17.2461L35.126 17.3604L36.4775 17.8857C36.0853 18.5867 35.7119 19.3119 35.3594 20.0625C35.3836 20.2322 35.3917 20.3878 35.3877 20.5293C35.0956 20.9115 34.7482 21.2756 34.3516 21.6221C33.8879 22.0436 33.3802 22.4099 32.8311 22.7236L32.8916 22.9844L32.8975 23.0068L32.9023 23.0303C33.0126 23.5814 33.0944 24.156 33.1494 24.7529C33.2376 25.3889 33.2349 26.0439 33.1475 26.7148L33.1328 26.834L33.0898 26.9453C32.8073 27.68 32.4631 28.3544 32.0566 28.9658L32.0576 28.9668C31.6678 29.5665 31.1918 30.1148 30.6357 30.6123L30.6328 30.6143C30.0901 31.0967 29.4773 31.4997 28.7988 31.8242L28.7822 31.832L28.7656 31.8389C28.0536 32.1484 27.3071 32.3196 26.5322 32.3506L26.4062 32.3555L26.2822 32.3291C25.8824 32.2434 25.491 32.1264 25.1758 31.9463L25.1455 31.9297L25.1172 31.9102C24.9452 31.7955 24.7832 31.678 24.6318 31.5576C24.5501 31.4967 24.4845 31.4526 24.4346 31.4219C24.3909 31.395 24.368 31.384 24.3633 31.3818L24.3389 31.3721L24.3154 31.3613L23.0439 30.7744L23.2607 29.9609L23.3916 29.4668C23.334 29.4015 23.2486 29.3152 23.1289 29.2061C23.0189 29.1199 22.9131 29.0303 22.8164 28.9336L22.7656 28.8838L22.7236 28.8262C22.6773 28.7644 22.6179 28.696 22.543 28.6211L22.5186 28.5967L22.4951 28.5703L20.6689 26.4697L23.4951 25.6992L23.5 25.6982C24.1936 25.5133 24.4615 25.3278 24.5361 25.2549C24.5409 25.2458 24.5486 25.2336 24.5557 25.2158C24.5722 25.1739 24.5911 25.1105 24.6074 25.0205C24.4697 25.0233 24.3593 25.0342 24.2734 25.0557L24.2451 25.0635L24.2158 25.0684C23.8219 25.1422 23.4269 25.2277 23.0322 25.3262L23.0332 25.3271C22.4247 25.4859 21.8287 25.632 21.2451 25.7646L21.2021 25.7725C20.5616 25.8889 19.8761 25.9453 19.1484 25.9453C18.6643 25.9453 18.1617 25.9029 17.6416 25.8232L17.2217 25.7852L16.5303 25.7217L16.3477 25.0518L16.2812 24.8115L16.2461 24.7578C16.2341 24.7399 16.2246 24.7281 16.2188 24.7207C16.2128 24.7133 16.2117 24.7117 16.2148 24.7148L16.1826 24.6826L16.1533 24.6484C16.1166 24.6044 16.0808 24.556 16.042 24.5068L15.5986 24.9072L15.2783 25.1953C15.2086 25.2817 15.131 25.3606 15.0459 25.4316C14.9959 25.6252 14.9357 25.8147 14.8643 26C14.7825 26.2699 14.687 26.5381 14.5811 26.8057C14.4581 27.1985 14.3352 27.5804 14.2119 27.9512C14.1319 28.2559 14.0938 28.5555 14.0938 28.8516V29.002L14.0498 29.1455L13.8936 29.6533L13.8545 29.7783L13.7852 29.8896C13.5726 30.2296 13.2839 30.5047 12.9248 30.6953L12.9258 30.6963C12.7123 30.8183 12.4956 30.9265 12.2764 31.0205L12.2656 31.0254L12.2539 31.0303C12.2405 31.0356 12.228 31.0418 12.2158 31.0469L12.1934 31.1465L12.0371 31.8213L11.3506 31.9131L10.8086 31.9844C10.5084 32.0532 10.2636 32.1049 10.0859 32.1357L10.0869 32.1367C10.0822 32.1377 10.077 32.1377 10.0723 32.1387C10.0664 32.1397 10.0604 32.1416 10.0547 32.1426L10.0537 32.1416C9.84985 32.1796 9.63604 32.1953 9.42188 32.1953H9.38379L9.34473 32.1924L8.46875 32.125L8.20703 31.8633C7.90849 31.5647 7.68658 31.368 7.5332 31.2529L7.47559 31.2109L7.42578 31.1602C7.32862 31.063 7.19804 30.9672 7.02148 30.8789L6.81055 30.7734L6.66895 30.584L6.43457 30.2715L6.37988 30.2002L6.33984 30.1191C6.21 29.8594 6.1009 29.5781 6.05273 29.2891L6.05078 29.2783L6.04883 29.2666C6.02941 29.1306 5.99992 28.9924 5.95996 28.8525L5.94336 28.792L5.93359 28.7305C5.91529 28.6115 5.8951 28.5312 5.87988 28.4814L4.58887 27.1904L5.49219 26.4961L5.63184 26.3877L5.64941 26.0303L5.6582 25.8584L5.72266 25.6992C6.37905 24.0976 7.04953 22.5599 7.7334 21.0869L7.73633 21.0801L7.74023 21.0732C8.44446 19.6126 9.17447 18.1127 9.93066 16.5742C10.0175 16.3909 10.194 16.0195 10.2764 15.8457L10.6279 15.1035L10.6367 15.084L10.6465 15.0654C10.8539 14.6713 11.0496 14.2666 11.2402 13.8545C11.2365 13.8017 11.2344 13.7486 11.2344 13.6953C11.2344 13.4335 11.2868 13.1817 11.3643 12.9492L11.4102 12.8115L11.4932 12.6924C11.839 12.1983 12.0972 11.7724 12.2773 11.4121L12.2881 11.3906L12.3008 11.3691C12.523 10.9742 12.7324 10.5657 12.9307 10.1445C13.1687 9.61617 13.4198 9.08821 13.6836 8.56055L13.6924 8.54297L13.7021 8.52637C14.014 7.95942 14.391 7.41248 14.8301 6.88574L15.0869 6.52051L15.4199 6.04492L16.1797 6.11426C16.2418 6.09213 16.305 6.0728 16.3691 6.05566C16.6186 5.97039 16.8738 5.9375 17.1172 5.9375H17.2002L17.2812 5.95117L17.6699 6.01562C18.2908 5.69404 18.8468 5.26119 19.3398 4.70898L19.3418 4.70703C19.9777 3.99774 20.6235 3.14212 21.2783 2.13477L21.2891 2.11816L21.2998 2.10254L21.7686 1.43848L22.3145 0.666992L23.7256 1.54883ZM22.1172 2.67969C21.4401 3.72135 20.763 4.61979 20.0859 5.375C19.4349 6.10417 18.6797 6.66406 17.8203 7.05469L17.1172 6.9375C16.9349 6.9375 16.7786 6.96354 16.6484 7.01562C16.5443 7.04167 16.4401 7.08073 16.3359 7.13281L15.9062 7.09375L15.6328 7.48438C15.2161 7.97917 14.8646 8.48698 14.5781 9.00781C14.3177 9.52865 14.0703 10.0495 13.8359 10.5703C13.6276 11.013 13.4062 11.4427 13.1719 11.8594C12.9635 12.276 12.6771 12.7448 12.3125 13.2656C12.2604 13.4219 12.2344 13.5651 12.2344 13.6953C12.2344 13.7995 12.2474 13.9036 12.2734 14.0078C12.0391 14.5286 11.7917 15.0365 11.5312 15.5312L10.8281 17.0156C10.0729 18.5521 9.34375 20.0495 8.64062 21.5078C7.96354 22.9661 7.29948 24.4896 6.64844 26.0781L6.60938 26.8984L6.10156 27.2891L6.6875 27.875C6.79167 28.0052 6.86979 28.2396 6.92188 28.5781C6.97396 28.7604 7.01302 28.9427 7.03906 29.125C7.0651 29.2812 7.13021 29.4635 7.23438 29.6719L7.46875 29.9844C7.72917 30.1146 7.95052 30.2708 8.13281 30.4531C8.34115 30.6094 8.60156 30.8438 8.91406 31.1562L9.42188 31.1953C9.60417 31.1953 9.76042 31.1823 9.89062 31.1562C10.0469 31.1302 10.2943 31.0781 10.6328 31L11.2188 30.9219L11.3359 30.4141C11.4401 30.3099 11.6224 30.2057 11.8828 30.1016C12.0651 30.0234 12.2474 29.9323 12.4297 29.8281C12.638 29.724 12.8073 29.5677 12.9375 29.3594L13.0938 28.8516C13.0938 28.4609 13.1458 28.0703 13.25 27.6797C13.3802 27.2891 13.5104 26.8854 13.6406 26.4688C13.7448 26.2083 13.8359 25.9479 13.9141 25.6875C14.0182 25.4271 14.0964 25.1536 14.1484 24.8672C14.2005 24.8151 14.2656 24.763 14.3438 24.7109C14.4219 24.6589 14.487 24.5938 14.5391 24.5156L14.9297 24.1641L14.7734 23.7344C14.7474 23.6823 14.7474 23.6042 14.7734 23.5C14.8255 23.3958 14.8776 23.3177 14.9297 23.2656L15.4375 23.1875L15.5938 22.6797L15.75 22.1328C15.8281 21.9245 15.9193 21.7161 16.0234 21.5078C16.0495 21.8203 16.1536 22.1198 16.3359 22.4062C16.2318 22.7969 16.2708 23.1224 16.4531 23.3828C16.6354 23.6432 16.7917 23.8516 16.9219 24.0078C16.974 24.0599 17.026 24.125 17.0781 24.2031L16.6006 24.5205L16.9248 24.4326L16.5488 24.9961L17.3125 24.7891L17.7422 24.8281C18.237 24.9062 18.7057 24.9453 19.1484 24.9453C19.8255 24.9453 20.4505 24.8932 21.0234 24.7891C21.5964 24.6589 22.1823 24.5156 22.7812 24.3594C23.1979 24.2552 23.6146 24.1641 24.0312 24.0859C24.4479 23.9818 24.9818 23.9948 25.6328 24.125C25.6849 24.9583 25.5807 25.5443 25.3203 25.8828C25.0599 26.1953 24.5391 26.4557 23.7578 26.6641L22.4688 27.0156L23.25 27.9141C23.3542 28.0182 23.4453 28.1224 23.5234 28.2266C23.6016 28.3047 23.6927 28.3828 23.7969 28.4609C24.0833 28.7214 24.2656 28.9297 24.3438 29.0859C24.4479 29.2422 24.4609 29.4245 24.3828 29.6328L24.2266 30.2188L24.7344 30.4531C24.8646 30.5052 25.0339 30.6094 25.2422 30.7656C25.3724 30.8698 25.5156 30.974 25.6719 31.0781C25.8542 31.1823 26.1276 31.2734 26.4922 31.3516C27.1432 31.3255 27.7682 31.1823 28.3672 30.9219C28.9661 30.6354 29.5 30.2839 29.9688 29.8672C30.4635 29.4245 30.8802 28.9427 31.2188 28.4219C31.5833 27.875 31.8958 27.263 32.1562 26.5859C32.2344 25.987 32.2344 25.4141 32.1562 24.8672C32.1042 24.2943 32.026 23.7474 31.9219 23.2266C31.8698 23.0182 31.8307 22.8359 31.8047 22.6797C31.8047 22.5234 31.7786 22.3542 31.7266 22.1719C32.4557 21.8333 33.1068 21.4036 33.6797 20.8828C34.2786 20.362 34.7214 19.8281 35.0078 19.2812L35.3984 18.5391L34.6953 18.2656C34.6432 18.2396 34.5781 18.2005 34.5 18.1484L34.3047 17.9531C34.1745 17.8229 34.0052 17.6927 33.7969 17.5625C33.6146 17.4062 33.3151 17.3151 32.8984 17.2891C32.7943 17.2109 32.7031 17.1328 32.625 17.0547C32.5469 16.9766 32.4818 16.8984 32.4297 16.8203L32.2734 16.3516L31.7656 16.3906C31.349 16.4167 30.9844 16.4948 30.6719 16.625C30.6198 16.599 30.4635 16.5859 30.2031 16.5859C29.9427 15.9609 29.7344 15.3099 29.5781 14.6328C29.4219 13.9297 29.2786 13.2005 29.1484 12.4453C29.0443 11.9245 28.9271 11.4036 28.7969 10.8828C28.6927 10.3359 28.5755 9.80208 28.4453 9.28125C28.4193 8.63021 28.3672 8.04427 28.2891 7.52344C28.2109 6.97656 28.1198 6.42969 28.0156 5.88281L27.8594 5.17969C27.8333 4.94531 27.7943 4.6849 27.7422 4.39844L27.5469 4.04688C27.2604 3.76042 26.8568 3.53906 26.3359 3.38281C25.8151 3.20052 25.2812 3.04427 24.7344 2.91406C24.4219 2.8099 24.1224 2.71875 23.8359 2.64062C23.5495 2.5625 23.3411 2.48438 23.2109 2.40625L22.5859 2.01562L22.1172 2.67969ZM17.0781 24.2031C17.1562 24.2552 17.1953 24.3073 17.1953 24.3594L17.3125 24.7891L16.5488 24.9961L16.9248 24.4326L16.6006 24.5205L17.0781 24.2031ZM22.1562 12.1328C22.4427 13.1484 22.7031 14.1641 22.9375 15.1797C23.1979 16.1693 23.4323 17.1458 23.6406 18.1094C22.7292 18.2917 21.8828 18.4219 21.1016 18.5C20.3203 18.5781 19.474 18.6432 18.5625 18.6953C18.3802 18.7214 18.1979 18.7344 18.0156 18.7344C17.8594 18.7344 17.6901 18.7474 17.5078 18.7734C17.8464 18.2005 18.1979 17.6536 18.5625 17.1328L18.6016 17.0938C18.9922 16.3646 19.487 15.5964 20.0859 14.7891C20.6849 13.9818 21.3099 13.2266 21.9609 12.5234L22.1562 12.1328ZM21.7061 14.3389C21.4289 14.6766 21.1558 15.0247 20.8887 15.3848C20.3129 16.1608 19.8467 16.8883 19.4834 17.5664L19.4463 17.6338C19.9924 17.595 20.5111 17.554 21.002 17.5049C21.4536 17.4597 21.9309 17.3933 22.4346 17.3105C22.2902 16.6911 22.1367 16.0655 21.9707 15.4346L21.9668 15.4189L21.9629 15.4043C21.8809 15.0491 21.7945 14.6941 21.7061 14.3389Z" fill="black"/>
</g>
<defs>
<filter id="filter0_d_4_27" x="0.588867" y="0.666992" width="39.8887" height="39.6885" filterUnits="userSpaceOnUse" color-interpolation-filters="sRGB">
<feFlood flood-opacity="0" result="BackgroundImageFix"/>
<feColorMatrix in="SourceAlpha" type="matrix" values="0 0 0 0 0 0 0 0 0 0 0 0 0 0 0 0 0 0 127 0" result="hardAlpha"/>
<feOffset dy="4"/>
<feGaussianBlur stdDeviation="2"/>
<feComposite in2="hardAlpha" operator="out"/>
<feColorMatrix type="matrix" values="0 0 0 0 0 0 0 0 0 0 0 0 0 0 0 0 0 0 0.25 0"/>
<feBlend mode="normal" in2="BackgroundImageFix" result="effect1_dropShadow_4_27"/>
<feBlend mode="normal" in="SourceGraphic" in2="effect1_dropShadow_4_27" result="shape"/>
</filter>
</defs>
</svg>
