<svg width="38" height="41" viewBox="0 0 38 41" fill="none" xmlns="http://www.w3.org/2000/svg">
<g id="Stroke" filter="url(#filter0_d_4_28)">
<path d="M7.57031 29.8281C7.57031 29.9583 7.63542 30.0365 7.76562 30.0625C7.86979 30.349 8 30.5963 8.15625 30.8047C8.33854 31.013 8.53385 31.2213 8.74219 31.4297C9.08073 31.3776 9.41927 31.3646 9.75781 31.3906C10.1224 31.4167 10.474 31.4297 10.8125 31.4297C11.1771 31.4557 11.5026 31.4427 11.7891 31.3906C12.1016 31.3385 12.375 31.2083 12.6094 31C12.5312 31.1823 12.5573 31.2604 12.6875 31.2344C12.8438 31.2083 12.974 31.2083 13.0781 31.2344C13.1315 31.2186 13.1839 31.1997 13.2373 31.1836L13.5283 31.3935C13.5313 31.386 13.5419 31.3578 13.5508 31.3135C13.5566 31.2844 13.57 31.2001 13.5596 31.084C14.548 30.7741 15.547 30.4098 16.5547 29.9844C17.7266 29.4635 18.8333 28.8646 19.875 28.1875C20.9427 27.4844 21.8932 26.6771 22.7266 25.7656C23.5599 24.8542 24.1979 23.8255 24.6406 22.6797C24.901 22.0807 25.0052 21.4687 24.9531 20.8437C24.9271 20.2187 24.888 19.5156 24.8359 18.7344C24.6276 18.2396 24.3281 17.7838 23.9375 17.3672C23.5729 16.9245 23.3385 16.5078 23.2344 16.1172C23.0781 15.9349 22.9349 15.8698 22.8047 15.9219C22.7005 15.974 22.5964 15.8698 22.4922 15.6094C22.5182 15.3229 22.4792 15.0104 22.375 14.6719C22.2708 14.3073 22.1016 13.9687 21.8672 13.6562C21.6328 13.3437 21.3464 13.0833 21.0078 12.875C20.6693 12.6406 20.2656 12.5104 19.7969 12.4844C19.7188 12.1719 19.5495 11.9505 19.2891 11.8203C19.0286 11.6641 18.7292 11.5469 18.3906 11.4687L17.4531 11.2344C17.1406 11.1302 16.8932 10.9609 16.7109 10.7266C16.763 10.5703 16.75 10.4661 16.6719 10.4141C16.5938 10.362 16.5677 10.2708 16.5938 10.1406C17.1146 10.0885 17.6094 10.0234 18.0781 9.94531C18.5469 9.84114 18.9245 9.65885 19.2109 9.39843C19.5755 9.45051 19.9661 9.42447 20.3828 9.32031C20.7995 9.1901 21.2161 9.07291 21.6328 8.96874C22.0755 8.83853 22.4922 8.77343 22.8828 8.77343C23.2734 8.74739 23.612 8.89062 23.8984 9.20312C24.8359 9.09895 25.8906 9.00781 27.0625 8.92968C28.2344 8.85156 29.4062 8.95572 30.5781 9.24218C30.9167 9.05989 31.2422 8.86458 31.5547 8.65624C31.8672 8.44791 32.1667 8.23958 32.4531 8.03124C32.5833 7.48437 32.5443 7.05468 32.3359 6.74218C32.1536 6.40364 31.9062 6.09114 31.5938 5.80468C31.5677 5.51822 31.4766 5.24479 31.3203 4.98437C31.1641 4.72395 30.9818 4.46354 30.7734 4.20312L30.2266 3.34374C30.0443 3.05729 29.901 2.75781 29.7969 2.44531C28.0781 1.95051 26.4375 1.7552 24.875 1.85937C23.3125 1.93749 21.7891 2.17187 20.3047 2.56249C18.8203 2.95312 17.362 3.39583 15.9297 3.89062C14.5234 4.38541 13.1172 4.76301 11.7109 5.02343C11.6589 5.15364 11.6849 5.21874 11.7891 5.21874C11.8932 5.21874 11.9453 5.27083 11.9453 5.37499C11.3984 5.53124 10.8125 5.72656 10.1875 5.96093C9.80911 6.08706 9.44133 6.23923 9.08203 6.41308C8.9317 6.1993 8.75491 5.99538 8.54688 5.80468C8.53995 5.72852 8.52785 5.65341 8.51172 5.5791C8.78855 5.44015 9.06989 5.31239 9.35742 5.19921L10.3145 4.8496C10.4672 4.79542 10.618 4.74396 10.7666 4.69433C10.7729 4.67734 10.7779 4.66309 10.7822 4.65234L10.9873 4.14062L11.5293 4.04003C12.8824 3.78944 14.2384 3.42552 15.5977 2.94726L15.6035 2.94531C17.0596 2.44231 18.5417 1.99257 20.0498 1.5957C21.599 1.18801 23.1879 0.942386 24.8145 0.860345C26.2941 0.762384 27.8227 0.914092 29.3955 1.30273L30.0732 1.48437L30.5791 1.62988L30.7451 2.1289C30.8226 2.36143 30.9306 2.58706 31.0703 2.80663L31.3438 3.23632C31.4163 3.35037 31.5132 3.50296 31.5908 3.62499C31.8095 3.90206 32.0059 4.1834 32.1777 4.46972C32.3374 4.73587 32.4532 5.01969 32.5234 5.31738C32.7882 5.59676 33.014 5.90162 33.1963 6.23242C33.5923 6.86058 33.5846 7.59573 33.4258 8.26269L33.3398 8.62206L33.041 8.83984C32.743 9.0566 32.4325 9.27287 32.1094 9.48827C31.7702 9.71441 31.4173 9.92623 31.0518 10.123L30.7139 10.3047L30.3408 10.2139C29.2656 9.95103 28.1959 9.85659 27.1289 9.92773C25.9684 10.0051 24.9286 10.0951 24.0088 10.1973L23.5039 10.2529L23.1611 9.8789C23.0604 9.76898 23.0093 9.76747 22.9492 9.77148L22.916 9.77343H22.8828C22.6032 9.77343 22.2822 9.81976 21.915 9.92773L21.8955 9.93359L21.875 9.93847C21.4774 10.0379 21.0791 10.1499 20.6807 10.2744L20.6533 10.2832L20.625 10.29C20.2542 10.3827 19.8832 10.4285 19.5156 10.4219C19.3888 10.5052 19.256 10.5786 19.1182 10.6435C19.3334 10.7205 19.5395 10.8139 19.7354 10.9258C19.7364 10.9263 19.7382 10.9272 19.7393 10.9277C19.7604 10.9399 19.7828 10.9503 19.8037 10.9629L19.8027 10.9639C20.0836 11.1178 20.3041 11.3261 20.4697 11.5723C20.8478 11.6579 21.2045 11.8057 21.5312 12.0234H21.5322C21.9757 12.2964 22.356 12.642 22.667 13.0566C22.9723 13.4637 23.1982 13.912 23.3369 14.3975H23.3359C23.401 14.6124 23.4491 14.8296 23.4756 15.0478C23.6517 15.1398 23.7948 15.2593 23.8975 15.3623L23.9932 15.4668L24.1416 15.6396L24.2002 15.8594C24.2549 16.0646 24.3982 16.3518 24.7021 16.7226C25.094 17.1478 25.4147 17.6132 25.6562 18.1201L25.7578 18.3467L25.8223 18.501L25.834 18.668C25.8865 19.4553 25.9257 20.1668 25.9521 20.8018H25.9512C26.0086 21.5703 25.8783 22.3195 25.5723 23.0391L25.5732 23.04C25.0855 24.3024 24.3816 25.4377 23.4648 26.4404C22.5738 27.415 21.5591 28.2754 20.4248 29.0225L20.4199 29.0264C19.3327 29.733 18.1794 30.3569 16.9609 30.8984L16.9521 30.9023L16.9434 30.9053C15.7393 31.4137 14.5452 31.8436 13.3613 32.1934L13.0996 32.2705L12.8848 32.2158C12.8765 32.2167 12.8653 32.2184 12.8516 32.2207L12.8506 32.2197C12.7677 32.2342 12.6412 32.2486 12.4922 32.2285C12.3203 32.296 12.1401 32.3458 11.9531 32.3769L11.9521 32.376C11.5873 32.4408 11.2005 32.4538 10.7988 32.4287C10.439 32.4284 10.0681 32.4149 9.68652 32.3877H9.68066C9.41937 32.3676 9.15783 32.3775 8.89453 32.418L8.39355 32.4951L8.03516 32.1367C7.81212 31.9137 7.60112 31.6889 7.40332 31.4629L7.37891 31.4346L7.35645 31.4043C7.20369 31.2006 7.07552 30.9786 6.9668 30.7432C6.9272 30.7072 6.88726 30.669 6.85059 30.625C6.84221 30.6149 6.83507 30.6039 6.82715 30.5937H6.41406V29.5937C6.41406 29.506 6.42075 29.3835 6.44824 29.2461C6.38443 29.1388 6.33379 29.0175 6.30664 28.8818C6.25871 28.6422 6.29367 28.4266 6.34863 28.2617L6.37793 28.1738L6.42285 28.0928C6.42409 28.0905 6.44966 28.0534 6.42773 27.9219L6.41992 27.8789L6.41699 27.835L6.33887 26.8193C6.30529 26.3828 6.33703 25.9535 6.44922 25.542H6.4502C6.6171 24.9021 7.06162 24.4526 7.58203 24.1553L7.8584 23.9971L8.1748 24.0283C9.14965 24.1234 10.0459 24.0736 10.8691 23.8906L10.875 23.8896C11.7787 23.6942 12.6134 23.4275 13.3809 23.0918L13.3906 23.0869C14.2209 22.7347 14.9969 22.3587 15.7197 21.96C16.3906 21.58 17.0445 21.2282 17.6807 20.9033C17.7815 20.6917 17.906 20.4919 18.0615 20.3105L18.0859 20.2812L18.1133 20.2539C18.2966 20.0706 18.4822 19.8985 18.6689 19.7363C18.8198 19.585 18.9587 19.435 19.0869 19.2871C19.0975 19.2721 19.1088 19.2569 19.1191 19.2402L19.0371 19.1992C18.4107 18.886 17.7447 18.6194 17.0391 18.4004C16.4358 18.2132 15.8873 18.0048 15.3984 17.7734C15.0116 17.897 14.5941 17.9106 14.168 17.7685C13.9089 17.6822 13.5862 17.5934 13.1963 17.5C12.1085 17.4447 11.0661 17.3398 10.0703 17.1826H10.0664C9.02126 17.0131 8.00557 16.7161 7.02051 16.2939L6.60742 16.1172L6.53711 15.9072L6.21973 15.9658L5.85254 15.4404C5.7011 15.2241 5.54291 15.0351 5.37891 14.8711L5.33496 14.8271L5.29688 14.7783C5.07841 14.4974 4.87976 14.1905 4.7002 13.8613L4.52637 13.543L4.59766 13.1865C4.6702 12.8238 4.71385 12.5511 4.73633 12.3594C4.72902 12.3382 4.70786 12.2892 4.65234 12.2129L4.37793 11.8359L4.49121 11.3828C4.59459 10.9693 4.66949 10.6533 4.71875 10.4316L4.73047 10.3809L4.74707 10.332C4.75602 10.3048 4.78683 10.153 4.74219 9.79589L4.71289 9.56445L4.78906 9.34472C4.84086 9.19507 4.89988 9.04974 4.96191 8.90722C5.31973 8.91333 5.67734 8.93743 6.03516 8.97753C5.91959 9.19535 5.81923 9.42674 5.73438 9.67187C5.78646 10.0885 5.77344 10.4141 5.69531 10.6484C5.64323 10.8828 5.5651 11.2083 5.46094 11.625C5.66927 11.9115 5.76042 12.1849 5.73438 12.4453C5.70833 12.6797 5.65625 12.9922 5.57812 13.3828C5.73438 13.6693 5.90365 13.9297 6.08594 14.1641C6.29427 14.3724 6.48958 14.6068 6.67188 14.8672C6.95833 14.8151 7.14062 14.8542 7.21875 14.9844C7.29688 15.0885 7.36198 15.2187 7.41406 15.375C8.32552 15.7656 9.26302 16.0391 10.2266 16.1953C11.2161 16.3516 12.2578 16.4557 13.3516 16.5078C13.7943 16.612 14.1719 16.7161 14.4844 16.8203C14.7969 16.9245 15.1094 16.8724 15.4219 16.6641C15.9427 16.9505 16.5807 17.2109 17.3359 17.4453C18.0911 17.6797 18.8073 17.9661 19.4844 18.3047C19.5365 18.3047 19.5885 18.3177 19.6406 18.3437L19.875 18.4219C19.875 18.526 19.901 18.6042 19.9531 18.6562L20.1094 18.8125C20.1615 18.8385 20.2005 18.8776 20.2266 18.9297C20.2526 18.9818 20.2526 19.0599 20.2266 19.1641C20.1484 19.4505 20.0312 19.6979 19.875 19.9062C19.7188 20.0885 19.5495 20.2708 19.3672 20.4531C19.1849 20.6094 19.0026 20.7786 18.8203 20.9609C18.6641 21.1432 18.5469 21.3646 18.4688 21.625C17.7396 21.9896 16.9844 22.3932 16.2031 22.8359C15.4479 23.2526 14.6406 23.6432 13.7812 24.0078C12.9479 24.3724 12.0495 24.6588 11.0859 24.8672C10.1484 25.0755 9.14583 25.1276 8.07812 25.0234C7.71354 25.2318 7.49219 25.4922 7.41406 25.8047C7.33594 26.0911 7.3099 26.4036 7.33594 26.7422L7.41406 27.7578C7.46615 28.0703 7.42708 28.3437 7.29688 28.5781C7.27083 28.6562 7.28385 28.7213 7.33594 28.7734C7.41406 28.8255 7.47917 28.8776 7.53125 28.9297C7.60938 28.9557 7.64844 28.9948 7.64844 29.0469C7.67448 29.0729 7.63542 29.125 7.53125 29.2031L7.45312 29.3594C7.42708 29.4115 7.41406 29.4896 7.41406 29.5937C7.54427 29.5937 7.59635 29.6719 7.57031 29.8281Z" fill="black"/>
</g>
<defs>
<filter id="filter0_d_4_28" x="0.37793" y="0.831421" width="37.1497" height="39.6637" filterUnits="userSpaceOnUse" color-interpolation-filters="sRGB">
<feFlood flood-opacity="0" result="BackgroundImageFix"/>
<feColorMatrix in="SourceAlpha" type="matrix" values="0 0 0 0 0 0 0 0 0 0 0 0 0 0 0 0 0 0 127 0" result="hardAlpha"/>
<feOffset dy="4"/>
<feGaussianBlur stdDeviation="2"/>
<feComposite in2="hardAlpha" operator="out"/>
<feColorMatrix type="matrix" values="0 0 0 0 0 0 0 0 0 0 0 0 0 0 0 0 0 0 0.25 0"/>
<feBlend mode="normal" in2="BackgroundImageFix" result="effect1_dropShadow_4_28"/>
<feBlend mode="normal" in="SourceGraphic" in2="effect1_dropShadow_4_28" result="shape"/>
</filter>
</defs>
</svg>
